<?xml version="1.0" encoding="UTF-8"?>
<svg xmlns="http://www.w3.org/2000/svg" version="1.1" xmlns:xlink="http://www.w3.org/1999/xlink" viewBox="0 0 109.27 107.97">
  <!-- Generator: Adobe Illustrator 29.8.3, SVG Export Plug-In . SVG Version: 2.1.1 Build 3)  -->
  <defs>
    <style>
      .st0 {
        fill: url(#linear-gradient2);
      }

      .st1 {
        font-family: Montserrat-Bold, Montserrat;
        font-size: 12.8px;
      }

      .st1, .st2 {
        font-weight: 700;
      }

      .st1, .st2, .st3 {
        fill: #382a57;
      }

      .st2 {
        font-family: Almarai-Bold, Almarai;
        font-size: 21.13px;
      }

      .st4 {
        fill: url(#radial-gradient);
        mix-blend-mode: multiply;
      }

      .st5 {
        fill: url(#linear-gradient1);
      }

      .st6 {
        fill: #fffeff;
        filter: url(#drop-shadow-7);
      }

      .st7 {
        isolation: isolate;
      }

      .st8 {
        fill: url(#linear-gradient4);
      }

      .st9 {
        fill: url(#linear-gradient5);
      }

      .st10 {
        fill: url(#linear-gradient3);
      }

      .st11 {
        fill: url(#linear-gradient6);
      }

      .st12 {
        fill: url(#linear-gradient);
      }

      .st3 {
        font-family: Montserrat-Regular, Montserrat;
        font-size: 2.39px;
        letter-spacing: .18em;
      }
    </style>
    <filter id="drop-shadow-7" x="7.32" y="5.78" width="110.4" height="110.4" filterUnits="userSpaceOnUse">
      <feOffset dx="7" dy="7"/>
      <feGaussianBlur result="blur" stdDeviation="5"/>
      <feFlood flood-color="#0c0c0c" flood-opacity=".15"/>
      <feComposite in2="blur" operator="in"/>
      <feComposite in="SourceGraphic"/>
    </filter>
    <linearGradient id="linear-gradient" x1="26.72" y1="72.42" x2="52.58" y2="16.15" gradientUnits="userSpaceOnUse">
      <stop offset="0" stop-color="#1277c5"/>
      <stop offset="1" stop-color="#5ed376"/>
    </linearGradient>
    <linearGradient id="linear-gradient1" x1="57.57" y1="87.67" x2="84.63" y2="28.78" xlink:href="#linear-gradient"/>
    <linearGradient id="linear-gradient2" x1="32.4" y1="76.11" x2="59.47" y2="17.22" xlink:href="#linear-gradient"/>
    <linearGradient id="linear-gradient3" x1="45.1" y1="81.95" x2="72.17" y2="23.05" xlink:href="#linear-gradient"/>
    <linearGradient id="linear-gradient4" x1="37.5" y1="77.34" x2="63.69" y2="20.36" xlink:href="#linear-gradient"/>
    <linearGradient id="linear-gradient5" x1="47.81" y1="81.56" x2="73.94" y2="24.69" xlink:href="#linear-gradient"/>
    <linearGradient id="linear-gradient6" x1="53.04" y1="64.13" x2="54.38" y2="29.71" xlink:href="#linear-gradient"/>
    <radialGradient id="radial-gradient" cx="50.48" cy="-24287.96" fx="50.48" fy="-24287.96" r="36.71" gradientTransform="translate(0 2234.2) scale(1 .09)" gradientUnits="userSpaceOnUse">
      <stop offset="0" stop-color="#c4c4c4"/>
      <stop offset=".21" stop-color="#d9d9d9"/>
      <stop offset=".48" stop-color="#eee"/>
      <stop offset=".74" stop-color="#fafafa"/>
      <stop offset="1" stop-color="#fff"/>
    </radialGradient>
  </defs>
  <g class="st7">
    <g id="Layer_1">
      <g>
        <rect class="st6" x="15.48" y="13.98" width="80.01" height="80.01" rx="5.79" ry="5.79"/>
        <g>
          <g>
            <path class="st12" d="M45.23,50.7v-10.67c0-1.4-1.13-2.53-2.53-2.53h-6.84c-1.4,0-2.53,1.13-2.53,2.53v12.39c3.3-.11,7.39-.71,11.9-1.72Z"/>
            <path class="st5" d="M65.87,48.93v15.48h11.9v-21.38c-3.42,2.02-7.45,4.02-11.9,5.9Z"/>
          </g>
          <path class="st0" d="M45.23,58.68v-2.93c-4.25,1.03-8.28,1.76-11.9,2.15v6.51h11.9v-5.72Z"/>
          <path class="st10" d="M56.77,52.38c-2.47.84-4.91,1.59-7.32,2.26v9.76h11.9v-13.67c-1.5.57-3.03,1.12-4.59,1.65Z"/>
          <path class="st8" d="M61.36,32.05v-.67c0-1.3-1.06-2.36-2.36-2.36h-7.18c-1.3,0-2.36,1.06-2.36,2.36v18.28c2.82-.75,5.75-1.63,8.71-2.63,1.09-.37,2.16-.75,3.2-1.13v-13.85Z"/>
          <path class="st9" d="M65.87,20.97v23.18c4.75-1.95,8.76-3.95,11.9-5.82v-17.36c0-1.68-1.36-3.04-3.04-3.04h-5.82c-1.68,0-3.04,1.36-3.04,3.04Z"/>
          <path class="st11" d="M89.45,28.11l-6.56,4.75h3.39c-2.53,4.24-13.64,10.51-27.74,15.3-16.92,5.75-31.72,7.2-33.06,3.24-.64-1.89,1.91-4.68,6.6-7.7v-3.34c-9.32,5-14.9,10.15-13.77,13.48,1.75,5.14,18.8,3.99,38.08-2.57,15.81-5.38,28.22-12.71,31.21-18.01l1.86,2.42v-7.56Z"/>
        </g>
        <g>
          <text class="st1" transform="translate(35.7 88.99)"><tspan x="0" y="0">Rasd</tspan></text>
          <text class="st3" transform="translate(47.58 91.8)"><tspan x="0" y="0">management</tspan></text>
        </g>
        <ellipse class="st4" cx="50.48" cy="87.15" rx="36.71" ry="3.24"/>
        <text class="st2" transform="translate(30.45 77.23)"><tspan x="0" y="0">رصـــد</tspan></text>
      </g>
    </g>
  </g>
</svg>