<?xml version="1.0" encoding="UTF-8"?>
<svg id="Layer_1" xmlns="http://www.w3.org/2000/svg" version="1.1" xmlns:xlink="http://www.w3.org/1999/xlink" viewBox="0 0 109.27 107.97">
  <!-- Generator: Adobe Illustrator 29.8.3, SVG Export Plug-In . SVG Version: 2.1.1 Build 3)  -->
  <defs>
    <style>
      .st0 {
        fill: #4257a3;
      }

      .st1 {
        fill: #fffeff;
        filter: url(#drop-shadow-8);
      }
    </style>
    <filter id="drop-shadow-8" x="6.57" y="5.78" width="110.16" height="110.4" filterUnits="userSpaceOnUse">
      <feOffset dx="7" dy="7"/>
      <feGaussianBlur result="blur" stdDeviation="5"/>
      <feFlood flood-color="#0c0c0c" flood-opacity=".15"/>
      <feComposite in2="blur" operator="in"/>
      <feComposite in="SourceGraphic"/>
    </filter>
  </defs>
  <rect class="st1" x="14.63" y="13.98" width="80.01" height="80.01" rx="5.79" ry="5.79"/>
  <g>
    <path class="st0" d="M31.91,60.04c-.85-.24-.17-1.62-.16-2.29.16-7.21-.17-14.44,0-21.66.25-1.62,1.17-1.86,2.62-1.99,12.87-1.16,27.46.92,40.52,0,.95-.03,1.97.26,2.38,1.17.74,7.94-.18,16.06.47,24.05.18.26-.27.73-.39.73H31.91ZM55.88,36.24c-.11-.11-3.09-.12-3.2,0-.16.16.22,1.61-.06,2.08-.09.14-2.87,1.4-3.03,1.42-.84.13-1.25-1.71-2.23-1.21-.2.1-1.73,1.7-1.75,1.85-.12.69,1.26,1.23,1.3,1.72.01.16-1.03,2.91-1.14,3.03-.59.7-2.15.19-2.32.35-.12.11-.12,3.09,0,3.2.13.13,1.56-.23,2.15.16.14.09,1.22,2.81,1.25,3.02.13.85-1.61,1.15-1.11,2.14.9,1.78,2.43,2.21,3.62.39.49.53,3.18,1.28,3.28,1.43.26.42-.11,1.92.05,2.09.11.12,3.09.12,3.2,0,.16-.16-.22-1.67.05-2.09.1-.16,2.64-.71,3.04-1.42.76-.12,1.5,1.91,2.54,1.31.09-.05,1.43-1.47,1.46-1.58.33-1.01-1.27-1.55-1.37-2.14.53-.49,1.28-3.18,1.44-3.28.44-.28,2.26.13,2.44-.05.11-.11.11-3.09,0-3.2-.18-.18-2,.23-2.44-.05-.17-.11-.71-2.64-1.42-3.04-.13-.82,1.98-1.41,1.21-2.6-.06-.1-1.73-1.37-1.84-1.39-.7-.13-1.21,1.26-1.72,1.3-.17.01-3.03-1.19-3.17-1.29-.54-.38-.02-1.98-.21-2.17Z"/>
    <path class="st0" d="M77.9,61.1c-.65,3.61.31,4.61-4.07,4.98-4.65.39-9.51-.26-14.16-.23-7.21.04-18.41,1.18-25.18.13-3.31-.51-2.8-2.05-3.11-4.88h46.52Z"/>
    <polygon class="st0" points="59.78 66.78 59.78 73.18 65.82 73.18 65.82 74.24 42.74 74.24 42.74 73.18 48.78 73.18 48.78 66.78 59.78 66.78"/>
    <path class="st0" d="M55.41,37.57c.09.46-.14,2.08.01,2.24.05.06,1.11.06,1.54.23,2,.8,1.29,1.53,3.4-.19,2.51,1.4-.19,2.15.01,2.89.09.33.59.76.75,1.2s.64,2.17.77,2.29c.21.2,2.55-1.19,1.9,1.97-2.81-.61-2.14,1.72-3.47,3.38.03.47,2.42,1.49.24,2.59-.89.45-1.18-1.13-1.94-1.01-.38.06-1.37.78-1.92,1-.37.15-1.22.12-1.27.17-.36.36.89,2.96-2.27,2.24-.09-.46.14-2.09-.01-2.24-.06-.06-.9-.02-1.27-.17-2.03-.8-1.61-1.62-3.66.13-2.49-1.47.12-2.03-.02-2.89-.66-.52-1.16-3.18-1.46-3.39-1.06-.74-2.42,1.08-1.96-2.08.46-.09,2.09.14,2.24-.01.06-.06.02-.9.17-1.27.8-2.03,1.62-1.61-.13-3.66,1.47-2.49,2.03.12,2.89-.02.38-.06,1.37-.78,1.92-1,.37-.15,1.22-.12,1.27-.17.36-.36-.89-2.96,2.27-2.24ZM50.36,50.99c2.53,2.53,7.48,1.76,8.92-1.65,1.97-4.66-2.17-8.84-7.04-7.37-3.53,1.06-4.38,6.52-1.88,9.02Z"/>
    <path class="st0" d="M53.26,42.96c4.52-.94,7.19,4.97,3.28,7.58-3.58,2.39-8.09-1.77-5.86-5.59.43-.74,1.74-1.82,2.58-1.99Z"/>
  </g>
</svg>