<?xml version="1.0" encoding="UTF-8"?>
<svg id="Layer_1" xmlns="http://www.w3.org/2000/svg" version="1.1" xmlns:xlink="http://www.w3.org/1999/xlink" viewBox="0 0 109.27 107.97">
  <!-- Generator: Adobe Illustrator 29.8.3, SVG Export Plug-In . SVG Version: 2.1.1 Build 3)  -->
  <defs>
    <style>
      .st0 {
        fill: url(#linear-gradient2);
      }

      .st1 {
        fill: url(#linear-gradient10);
      }

      .st2 {
        font-family: NotoKufiArabic-ExtraBold, 'Noto Kufi Arabic';
        font-size: 4.78px;
        font-weight: 700;
      }

      .st2, .st3 {
        fill: #282c2a;
      }

      .st4 {
        fill: url(#linear-gradient1);
      }

      .st5 {
        fill: url(#linear-gradient9);
      }

      .st6 {
        fill: url(#linear-gradient8);
      }

      .st7 {
        fill: #fffeff;
        filter: url(#drop-shadow-10);
      }

      .st8 {
        fill: url(#linear-gradient7);
      }

      .st9 {
        fill: url(#linear-gradient4);
      }

      .st10 {
        fill: url(#linear-gradient5);
      }

      .st11 {
        fill: url(#linear-gradient3);
      }

      .st12 {
        fill: url(#linear-gradient6);
      }

      .st13 {
        fill: url(#linear-gradient);
      }
    </style>
    <filter id="drop-shadow-10" x="6.46" y="5.78" width="110.4" height="110.4" filterUnits="userSpaceOnUse">
      <feOffset dx="7" dy="7"/>
      <feGaussianBlur result="blur" stdDeviation="5"/>
      <feFlood flood-color="#0c0c0c" flood-opacity=".15"/>
      <feComposite in2="blur" operator="in"/>
      <feComposite in="SourceGraphic"/>
    </filter>
    <linearGradient id="linear-gradient" x1="50.02" y1="25.26" x2="47.18" y2="42.69" gradientUnits="userSpaceOnUse">
      <stop offset="0" stop-color="#f6ea32"/>
      <stop offset=".18" stop-color="#f1df30"/>
      <stop offset=".49" stop-color="#e5c32a"/>
      <stop offset=".69" stop-color="#dcaf27"/>
      <stop offset="1" stop-color="#c69130"/>
    </linearGradient>
    <linearGradient id="linear-gradient1" x1="39.79" y1="40.68" x2="50.57" y2="26.88" xlink:href="#linear-gradient"/>
    <linearGradient id="linear-gradient2" x1="30.84" y1="29.08" x2="43" y2="39.26" xlink:href="#linear-gradient"/>
    <linearGradient id="linear-gradient3" x1="34.74" y1="45.16" x2="33.7" y2="29.72" xlink:href="#linear-gradient"/>
    <linearGradient id="linear-gradient4" x1="24.72" y1="46.97" x2="35.88" y2="42.56" xlink:href="#linear-gradient"/>
    <linearGradient id="linear-gradient5" x1="29.71" y1="50.73" x2="38.35" y2="47.32" xlink:href="#linear-gradient"/>
    <linearGradient id="linear-gradient6" x1="40.39" y1="54.32" x2="46.95" y2="51.73" xlink:href="#linear-gradient"/>
    <linearGradient id="linear-gradient7" x1="36.2" y1="45.93" x2="45" y2="59.3" xlink:href="#linear-gradient"/>
    <linearGradient id="linear-gradient8" x1="50.99" y1="63.24" x2="75.28" y2="53.64" xlink:href="#linear-gradient"/>
    <linearGradient id="linear-gradient9" x1="61.37" y1="58.59" x2="88.72" y2="58.59" gradientUnits="userSpaceOnUse">
      <stop offset="0" stop-color="#6d6e70"/>
      <stop offset=".32" stop-color="#626365"/>
      <stop offset=".88" stop-color="#474749"/>
      <stop offset="1" stop-color="#414143"/>
    </linearGradient>
    <linearGradient id="linear-gradient10" x1="50.13" y1="40.97" x2="50.06" y2="43.02" xlink:href="#linear-gradient"/>
  </defs>
  <rect class="st7" x="14.63" y="13.98" width="80.01" height="80.01" rx="5.79" ry="5.79"/>
  <g>
    <polygon class="st13" points="45.96 41.17 48.97 39.98 51.29 27.96 46.69 35.18 45.96 41.17"/>
    <polygon class="st4" points="41.68 38.99 41.51 35.12 51.29 27.96 46.67 35.22 41.68 38.99"/>
    <polygon class="st0" points="41.72 39.01 41.51 35.12 30.74 29.13 36.23 36.49 41.72 39.01"/>
    <polygon class="st11" points="37.49 42.61 34.59 40.83 30.74 29.13 36.25 36.52 37.49 42.61"/>
    <polygon class="st9" points="25.75 48.94 25.75 48.94 34.55 40.71 37.49 42.61 25.75 48.94"/>
    <polygon class="st10" points="29.35 49.33 39.18 46.32 37.82 49.07 29.35 49.33"/>
    <polygon class="st12" points="42.85 60.17 42.41 52.13 44.65 45.83 46.62 48.55 42.85 60.17"/>
    <polygon class="st8" points="37.82 49.07 42.85 60.17 42.41 52.13 39.18 46.32 37.82 49.07"/>
    <path class="st6" d="M44.65,45.83l1.97,2.73s24.76,2.09,30.92,13.07-8.93,10.93-8.93,10.93c0,0,12.46,3.36,13.84-5.63,1.7-11.07-13.97-16.76-21.87-18.57-7.89-1.81-15.95-2.54-15.95-2.54Z"/>
    <path class="st5" d="M83.82,71.02s6.92-5.06-2.72-15.28c0,0-5.05-5.82-19.73-9.57,0,0,13.59,1.55,22.51,9.05,8.93,7.5,3.41,15.72-.06,15.8Z"/>
    <polygon class="st1" points="45.96 41.18 48.97 39.98 54.19 43.85 45.96 41.18"/>
    <g>
      <path class="st3" d="M22.62,69.75h-1.1v.71h1.23v.55h-1.91v-2.99h1.84v.55h-1.17v.62h1.1v.55Z"/>
      <path class="st3" d="M23.21,67.87h.68v3.15h-.68v-3.15Z"/>
      <path class="st3" d="M25.12,68.24c0,.19-.14.34-.36.34-.21,0-.35-.15-.35-.34,0-.19.14-.34.36-.34s.35.14.36.34ZM24.43,71.02v-2.17h.68v2.17h-.68Z"/>
      <path class="st3" d="M26.4,68.23v.62h.49v.5h-.49v.79c0,.26.07.38.27.38.09,0,.15,0,.2-.02v.51c-.08.03-.24.06-.43.06-.22,0-.4-.08-.51-.19-.13-.13-.19-.34-.19-.64v-.89h-.29v-.5h.29v-.47l.66-.15Z"/>
      <path class="st3" d="M27.77,70.15c.02.28.3.41.61.41.23,0,.42-.03.6-.09l.09.46c-.22.09-.5.14-.79.14-.74,0-1.16-.43-1.16-1.11,0-.55.34-1.16,1.1-1.16.7,0,.97.55.97,1.08,0,.12-.01.22-.02.27h-1.4ZM28.56,69.69c0-.16-.07-.44-.38-.44-.29,0-.4.26-.42.44h.8Z"/>
      <path class="st3" d="M31.2,70.25l-.21.77h-.7l.91-2.99h.88l.93,2.99h-.73l-.23-.77h-.86ZM31.96,69.75l-.19-.64c-.05-.18-.1-.4-.15-.58h0c-.04.18-.09.4-.14.58l-.18.64h.66Z"/>
      <path class="st3" d="M33.73,68.85l.17.89c.04.22.09.46.12.71h0c.04-.25.11-.49.16-.71l.23-.9h.54l.22.87c.06.25.12.49.16.74h0c.03-.25.07-.49.13-.74l.18-.86h.66l-.66,2.17h-.63l-.2-.76c-.06-.21-.1-.41-.14-.68h0c-.04.27-.08.48-.14.68l-.22.77h-.63l-.63-2.17h.69Z"/>
      <path class="st3" d="M37.83,71.02l-.04-.22h-.01c-.14.17-.36.26-.62.26-.44,0-.7-.32-.7-.67,0-.57.51-.83,1.28-.83v-.03c0-.12-.06-.28-.4-.28-.22,0-.45.08-.6.16l-.12-.43c.15-.09.45-.19.84-.19.72,0,.95.43.95.94v.76c0,.21.01.4.04.53h-.61ZM37.75,69.99c-.36,0-.63.08-.63.34,0,.17.12.26.27.26.17,0,.31-.11.35-.25.01-.04.01-.08.01-.12v-.24Z"/>
      <path class="st3" d="M38.94,69.56c0-.32,0-.53-.02-.72h.58l.02.4h.02c.11-.32.38-.45.59-.45.06,0,.09,0,.14.01v.64c-.05-.01-.11-.02-.18-.02-.25,0-.42.13-.46.34,0,.04-.01.1-.01.15v1.1h-.68v-1.46Z"/>
      <path class="st3" d="M42.69,67.87v2.5c0,.25,0,.5.02.65h-.6l-.03-.32h0c-.14.24-.4.37-.68.37-.51,0-.93-.44-.93-1.12,0-.73.46-1.16.97-1.16.27,0,.47.1.57.25h0v-1.18h.68ZM42.02,69.77s0-.08,0-.12c-.04-.18-.19-.33-.39-.33-.31,0-.47.27-.47.62,0,.37.18.6.46.6.19,0,.35-.13.39-.32.01-.05.01-.1.01-.15v-.28Z"/>
      <path class="st3" d="M44.21,71.02v-1.67h-.29v-.5h.29v-.08c0-.26.08-.55.27-.73.17-.16.4-.22.6-.22.15,0,.26.02.36.05l-.03.52c-.06-.02-.13-.03-.22-.03-.22,0-.32.17-.32.38v.11h.43v.5h-.43v1.67h-.68Z"/>
      <path class="st3" d="M47.74,69.91c0,.79-.56,1.16-1.15,1.16-.63,0-1.12-.42-1.12-1.12s.46-1.15,1.16-1.15,1.11.46,1.11,1.11ZM46.17,69.93c0,.37.16.65.44.65.26,0,.43-.26.43-.66,0-.32-.12-.65-.43-.65-.32,0-.45.33-.45.65Z"/>
      <path class="st3" d="M48.16,69.56c0-.32,0-.53-.02-.72h.58l.02.4h.02c.11-.32.38-.45.59-.45.06,0,.09,0,.14.01v.64c-.05-.01-.11-.02-.18-.02-.25,0-.42.13-.46.34,0,.04-.01.1-.01.15v1.1h-.68v-1.46Z"/>
      <path class="st3" d="M52.54,69.75h-1.1v.71h1.23v.55h-1.91v-2.99h1.84v.55h-1.17v.62h1.1v.55Z"/>
      <path class="st3" d="M53.62,68.85l.21.36c.06.11.12.22.18.32h.01c.06-.12.11-.23.17-.33l.19-.35h.73l-.71,1.04.72,1.14h-.77l-.22-.39c-.06-.11-.12-.22-.17-.33h-.01c-.05.12-.11.22-.17.33l-.2.39h-.74l.74-1.11-.72-1.07h.75Z"/>
      <path class="st3" d="M56.94,70.97c-.12.06-.35.1-.6.1-.7,0-1.15-.43-1.15-1.11,0-.64.43-1.15,1.24-1.15.18,0,.37.03.52.09l-.11.5c-.08-.04-.2-.07-.38-.07-.36,0-.59.25-.58.61,0,.4.27.61.59.61.16,0,.29-.03.39-.07l.08.5Z"/>
      <path class="st3" d="M57.78,70.15c.02.28.3.41.61.41.23,0,.42-.03.6-.09l.09.46c-.22.09-.5.14-.79.14-.74,0-1.16-.43-1.16-1.11,0-.55.34-1.16,1.1-1.16.7,0,.97.55.97,1.08,0,.12-.01.22-.02.27h-1.4ZM58.58,69.69c0-.16-.07-.44-.38-.44-.29,0-.4.26-.42.44h.8Z"/>
      <path class="st3" d="M59.61,67.87h.68v3.15h-.68v-3.15Z"/>
      <path class="st3" d="M60.83,67.87h.68v3.15h-.68v-3.15Z"/>
      <path class="st3" d="M62.57,70.15c.02.28.3.41.61.41.23,0,.42-.03.6-.09l.09.46c-.22.09-.5.14-.79.14-.74,0-1.16-.43-1.16-1.11,0-.55.34-1.16,1.1-1.16.7,0,.97.55.97,1.08,0,.12-.01.22-.02.27h-1.4ZM63.36,69.69c0-.16-.07-.44-.38-.44-.29,0-.4.26-.42.44h.8Z"/>
      <path class="st3" d="M64.39,69.54c0-.27,0-.5-.02-.69h.59l.03.3h.01c.09-.14.31-.35.67-.35.44,0,.78.3.78.94v1.29h-.68v-1.2c0-.28-.1-.47-.34-.47-.19,0-.3.13-.34.26-.02.04-.02.11-.02.17v1.25h-.68v-1.48Z"/>
      <path class="st3" d="M68.62,70.97c-.12.06-.35.1-.61.1-.7,0-1.15-.43-1.15-1.11,0-.64.43-1.15,1.24-1.15.18,0,.38.03.52.09l-.1.5c-.08-.04-.2-.07-.38-.07-.36,0-.59.25-.58.61,0,.4.27.61.59.61.16,0,.29-.03.39-.07l.08.5Z"/>
      <path class="st3" d="M69.46,70.15c.02.28.3.41.61.41.23,0,.42-.03.6-.09l.09.46c-.22.09-.5.14-.79.14-.74,0-1.16-.43-1.16-1.11,0-.55.34-1.16,1.1-1.16.7,0,.97.55.97,1.08,0,.12-.01.22-.02.27h-1.4ZM70.25,69.69c0-.16-.07-.44-.38-.44-.29,0-.4.26-.42.44h.8Z"/>
    </g>
    <text class="st2" transform="translate(22.13 66.15)"><tspan x="0" y="0">جـــائزة النـخـبة للتـمـــيز</tspan></text>
  </g>
</svg>