<?xml version="1.0" encoding="UTF-8"?>
<svg id="Layer_1" xmlns="http://www.w3.org/2000/svg" version="1.1" xmlns:xlink="http://www.w3.org/1999/xlink" viewBox="0 0 109.27 107.97">
  <!-- Generator: Adobe Illustrator 29.8.3, SVG Export Plug-In . SVG Version: 2.1.1 Build 3)  -->
  <defs>
    <style>
      .st0 {
        fill: url(#linear-gradient2);
      }

      .st1 {
        fill: #014c62;
      }

      .st2 {
        fill: url(#linear-gradient1);
      }

      .st3 {
        fill: #063851;
      }

      .st4 {
        fill: url(#linear-gradient4);
      }

      .st5 {
        fill: url(#linear-gradient5);
      }

      .st6 {
        fill: url(#linear-gradient3);
      }

      .st7 {
        fill: #fffeff;
        filter: url(#drop-shadow-9);
      }

      .st8 {
        fill: url(#linear-gradient6);
      }

      .st9 {
        fill: #072a3f;
      }

      .st10 {
        fill: url(#linear-gradient);
      }

      .st11 {
        fill: #036f85;
      }
    </style>
    <filter id="drop-shadow-9" x="6.49" y="5.78" width="110.16" height="110.4" filterUnits="userSpaceOnUse">
      <feOffset dx="7" dy="7"/>
      <feGaussianBlur result="blur" stdDeviation="5"/>
      <feFlood flood-color="#0c0c0c" flood-opacity=".15"/>
      <feComposite in2="blur" operator="in"/>
      <feComposite in="SourceGraphic"/>
    </filter>
    <linearGradient id="linear-gradient" x1="32.12" y1="72.29" x2="48.3" y2="78.75" gradientUnits="userSpaceOnUse">
      <stop offset="0" stop-color="#d9bc89"/>
      <stop offset="1" stop-color="#bb9b66"/>
    </linearGradient>
    <linearGradient id="linear-gradient1" x1="32.53" y1="71.27" x2="48.71" y2="77.73" xlink:href="#linear-gradient"/>
    <linearGradient id="linear-gradient2" x1="32.98" y1="70.14" x2="49.15" y2="76.6" xlink:href="#linear-gradient"/>
    <linearGradient id="linear-gradient3" x1="33.39" y1="69.11" x2="49.57" y2="75.57" xlink:href="#linear-gradient"/>
    <linearGradient id="linear-gradient4" x1="33.69" y1="68.35" x2="49.87" y2="74.81" xlink:href="#linear-gradient"/>
    <linearGradient id="linear-gradient5" x1="34.15" y1="67.21" x2="50.33" y2="73.67" xlink:href="#linear-gradient"/>
    <linearGradient id="linear-gradient6" x1="74.6" y1="42.46" x2="59.59" y2="58.12" xlink:href="#linear-gradient"/>
  </defs>
  <rect class="st7" x="14.63" y="13.98" width="80.01" height="80.01" rx="5.79" ry="5.79"/>
  <g>
    <g>
      <path class="st10" d="M34.68,75.06l-1.14-2.98h-.02c.02.24.03.52.03.84v2.14h-.36v-3.36h.59l1.06,2.77h.02l1.07-2.77h.58v3.36h-.39v-2.16c0-.25.01-.52.03-.81h-.02l-1.15,2.97h-.31Z"/>
      <path class="st2" d="M39.55,75.06l-.42-1.07h-1.35l-.41,1.07h-.39l1.33-3.37h.33l1.32,3.37h-.4ZM39.01,73.64l-.39-1.04c-.05-.13-.1-.29-.16-.48-.03.15-.08.31-.14.48l-.39,1.04h1.09Z"/>
      <path class="st0" d="M40.81,73.66v1.4h-.39v-3.36h.92c.41,0,.72.08.91.24.2.16.3.39.3.71,0,.44-.23.74-.67.9l.91,1.51h-.46l-.81-1.4h-.7ZM40.81,73.33h.53c.28,0,.48-.05.61-.16.13-.11.19-.27.19-.49s-.07-.38-.2-.48c-.13-.1-.34-.15-.63-.15h-.51v1.28Z"/>
      <path class="st6" d="M45.22,74.17c0,.3-.11.53-.32.69-.21.17-.51.25-.87.25-.4,0-.7-.05-.92-.15v-.38c.14.06.29.1.45.14.16.03.32.05.48.05.26,0,.46-.05.59-.15.13-.1.2-.24.2-.41,0-.12-.02-.21-.07-.29-.05-.07-.12-.14-.23-.21-.11-.06-.28-.13-.5-.21-.31-.11-.54-.24-.67-.4-.13-.15-.2-.35-.2-.6s.1-.46.29-.62c.19-.15.45-.23.77-.23s.64.06.92.18l-.12.34c-.28-.12-.55-.17-.81-.17-.21,0-.37.04-.48.13-.12.09-.17.21-.17.37,0,.12.02.21.06.29.04.07.11.14.22.2.1.06.26.13.47.21.35.13.59.26.73.4s.2.33.2.56Z"/>
      <path class="st4" d="M48.02,75.06l-.42-1.07h-1.35l-.41,1.07h-.39l1.33-3.37h.33l1.32,3.37h-.4ZM47.48,73.64l-.39-1.04c-.05-.13-.1-.29-.16-.48-.03.15-.08.31-.14.48l-.39,1.04h1.09Z"/>
      <path class="st5" d="M51.56,73.35c0,.55-.15.98-.45,1.27-.3.29-.73.44-1.3.44h-.93v-3.36h1.03c.52,0,.93.14,1.22.43s.43.69.43,1.21ZM51.15,73.36c0-.44-.11-.77-.33-.99-.22-.22-.55-.33-.98-.33h-.57v2.68h.48c.47,0,.81-.11,1.05-.34.23-.23.35-.57.35-1.02Z"/>
    </g>
    <g>
      <path class="st1" d="M33.87,70.06h-.09c-.68,0-1.2-.27-1.45-1.13h-.02c-.1.34-.22.54-.37.65-.39.31-.86.48-1.44.48-.7,0-1.19-.42-1.19-1.56,0-.13,0-.33.01-.57l.44-.04c.03.52.29.83.85.83.31,0,.64-.08.99-.24.25-.11.42-.23.42-.44,0-.26-.24-1.31-.58-2.24.18-.31.38-.62.62-.92l.11.03c.17.61.34,1.38.58,2.69.13.76.49,1.11,1.03,1.11h.09v1.34Z"/>
      <path class="st1" d="M36.55,68.72v1.34h-2.68c-.32,0-.47-.35-.47-.67s.15-.67.47-.67h2.68Z"/>
      <path class="st1" d="M39.24,68.72v1.34h-2.68c-.32,0-.47-.35-.47-.67s.15-.67.47-.67h2.68Z"/>
      <path class="st1" d="M41.92,68.72v1.34h-2.68c-.32,0-.47-.35-.47-.67s.15-.67.47-.67h2.68Z"/>
      <path class="st1" d="M44.6,68.72v1.34h-2.68c-.32,0-.47-.35-.47-.67s.15-.67.47-.67h2.68Z"/>
      <path class="st1" d="M47.29,68.72v1.34h-2.68c-.32,0-.47-.35-.47-.67s.15-.67.47-.67h2.68Z"/>
      <path class="st1" d="M49.97,68.72v1.34h-2.68c-.32,0-.47-.35-.47-.67s.15-.67.47-.67h2.68Z"/>
      <path class="st1" d="M55.13,66.08c.82,0,1.44.64,1.44,1.62,0,.5-.2,1.09-.51,1.44-.53.6-1.38.93-2.86.93-.8,0-1.42-.17-1.72-.68h-.03c-.35.43-.78.68-1.38.68h-.09c-.32,0-.47-.35-.47-.67s.15-.67.47-.67h.09c.5,0,.85-.13,1.03-.4.12-.17.22-.52.32-.8.16-.12.32-.25.5-.37l.05.03c-.06.25-.09.46-.09.61,0,.34.14.54.38.67.86-1.42,1.89-2.39,2.88-2.39ZM53.72,68.72c.8,0,1.68-.17,2.19-.58-.13-.59-.52-.9-.97-.9-.72,0-1.46.52-2.15,1.41.28.04.6.07.93.07Z"/>
      <path class="st1" d="M60.27,70.06h-.11c-.27,0-.49-.06-.7-.13,0,.69-.2,1.13-.44,1.52-.37.58-.8.97-1.35.97-.5,0-1.07-.19-1.78-.66l.15-.33c.25.09.46.11.6.11.56,0,1.05-.23,1.46-.62.44-.4.7-.87.79-1.28-.26-.33-.52-.74-.74-1.24.15-.36.31-.7.48-.99h.1c.35.78.71,1.31,1.46,1.31h.09v1.34Z"/>
      <path class="st1" d="M62.95,68.72v1.34h-2.68c-.32,0-.47-.35-.47-.67s.15-.67.47-.67h2.68Z"/>
      <path class="st1" d="M65.64,68.72v1.34h-2.68c-.32,0-.47-.35-.47-.67s.15-.67.47-.67h2.68Z"/>
      <path class="st1" d="M68.32,68.72v1.34h-2.68c-.32,0-.47-.35-.47-.67s.15-.67.47-.67h2.68Z"/>
      <path class="st1" d="M71,68.72v1.34h-2.68c-.32,0-.47-.35-.47-.67s.15-.67.47-.67h2.68Z"/>
      <path class="st1" d="M73.69,68.72v1.34h-2.68c-.32,0-.47-.35-.47-.67s.15-.67.47-.67h2.68Z"/>
      <path class="st1" d="M76.37,68.72v1.34h-2.68c-.32,0-.47-.35-.47-.67s.15-.67.47-.67h2.68Z"/>
      <path class="st1" d="M77.56,69.27c-.19.5-.56.79-1.11.79h-.09c-.31,0-.46-.32-.46-.67,0-.32.15-.67.47-.67h.09c.21,0,.4-.07.58-.17.52-.33.4-1.27,1.06-1.88.29-.27.58-.4.89-.4,1.12,0,1.5,1.71,1.5,2.45,0,.09-.24,1.28-1.13,1.28-.51,0-1.17-.26-1.77-.73h-.02ZM79.54,68.72c.13,0,.21-.02.21-.06-.14-.75-.54-1.23-.99-1.23-.36,0-.6.21-.78.58.52.46,1.05.72,1.57.72Z"/>
    </g>
    <path class="st11" d="M55.36,61.85c-3.28,0-6.57-.01-9.85,0,.15-.73.38-1.52.6-2.19.8-2.46,2.42-6.07,2.9-8.61.73-3.87.58-9.38,1.21-13.44.28-1.39,1.95-3.76,2-4.74h1.43c.52.2,1.04.34,1.57.26l.14,28.72Z"/>
    <path class="st1" d="M50.22,37.61c-.63,4.06-.48,9.56-1.21,13.44-.48,2.55-2.1,6.15-2.9,8.61-.22.67-.44,1.46-.6,2.19-.1,0-.19,0-.29,0l-5.14-.26,2.71-15.02s.1.01.14,0c.39-.11.46-.47.71-.79,1.55-1.92,3.31-3.69,4-7.11.05,0,.1.01.14,0,.82-.18,1.57-1.15,2.43-1.05Z"/>
    <path class="st3" d="M40.51,45.25c.74.3,1.57,1.29,2.28,1.32l-2.71,15.02,5.14.26c-1.76,0-3.52,0-5.28,0l-6.42-.26c-.14-.27,1.02-6.29,1.16-7.2.07-.43.1-1.63.14-1.72.06-.13.64-.2.69-.31.09-.17-.14-.24-.14-.26.05-.53,2.77-1.77,3.22-2.36.54-.71,1.2-3.42,1.64-4.49.09.03.2-.03.29,0Z"/>
    <path class="st9" d="M35.38,52.1s.23.09.14.26c-.05.1-.63.18-.69.31-.04.09-.07,1.29-.14,1.72-.15.92-1.31,6.93-1.16,7.2l6.42.26c-4.42,0-8.85,0-13.27,0-.09-.14.89-2.59,1.01-2.75.78-1.03,2.89-1.49,3.84-2.67.56-.69,1.38-3.02,1.9-4.01l1.96-.33Z"/>
    <path class="st8" d="M60.89,33.31l.83,17.11,10.1-5.68v5.61l10.04-5.61v17.11h-25.17v-12.13c0-.14.05-.27.06-.4.17-5.34.55-10.65.77-16.01h3.37ZM64.26,55.17h-5.08v3.71l.09.1h4.99v-3.81ZM71.82,55.17h-5.08v3.71l.09.1h4.99v-3.81ZM79.38,55.17h-5.08v3.71l.09.1h4.99v-3.81Z"/>
  </g>
</svg>