<?xml version="1.0" encoding="UTF-8"?>
<svg id="Layer_1" xmlns="http://www.w3.org/2000/svg" version="1.1" xmlns:xlink="http://www.w3.org/1999/xlink" viewBox="0 0 109.27 107.97">
  <!-- Generator: Adobe Illustrator 29.8.3, SVG Export Plug-In . SVG Version: 2.1.1 Build 3)  -->
  <defs>
    <style>
      .st0 {
        fill: #fffeff;
        filter: url(#drop-shadow-7);
      }

      .st1 {
        fill: #163c65;
      }
    </style>
    <filter id="drop-shadow-7" x="6.59" y="5.78" width="110.16" height="110.4" filterUnits="userSpaceOnUse">
      <feOffset dx="7" dy="7"/>
      <feGaussianBlur result="blur" stdDeviation="5"/>
      <feFlood flood-color="#0c0c0c" flood-opacity=".15"/>
      <feComposite in2="blur" operator="in"/>
      <feComposite in="SourceGraphic"/>
    </filter>
  </defs>
  <rect class="st0" x="14.63" y="13.98" width="80.01" height="80.01" rx="5.79" ry="5.79" transform="translate(109.27 107.97) rotate(180)"/>
  <g>
    <path class="st1" d="M75.46,50.95l2.34,4.1c.25.44.18.98-.18,1.34-1.92,1.91-7.94,8-11.02,12.31-.53.75-1.69.57-1.97-.3l-1.62-5.03c-.09-.27-.07-.55.05-.81.65-1.4,3.26-6.22,10.78-11.95.53-.41,1.3-.24,1.63.34Z"/>
    <path class="st1" d="M61.23,57.51l11.53-10.57c.3-.28.36-.73.12-1.06-1.31-1.91-6.15-8.44-17.68-19.17-.32-.3-.82-.3-1.13,0-2.67,2.6-14.21,13.92-17.66,19-.25.36-.16.85.2,1.11,3.18,2.31,17.52,13.76,20.59,33.95.06.4.4.7.8.7h5.32c.49,0,.87-.42.81-.91-.52-4.29-3.57-22.8-18.63-34.29-.39-.3-.44-.87-.1-1.22l8.65-8.96c.32-.33.85-.33,1.17,0l8.25,8.42c.3.31.31.8.02,1.12l-6.15,6.72c-.27.3-.29.75-.03,1.07.66.83,1.91,2.45,2.66,3.87.25.47.88.57,1.27.21Z"/>
    <path class="st1" d="M35.64,50.77c4.15,3.25,17.42,14.85,17.69,30.71h-6.6s-.44-13.53-15.4-25.3l2.42-4.97c.35-.71,1.26-.93,1.89-.44Z"/>
    <rect class="st1" x="51.48" y="41.95" width="6.33" height="6.33" rx=".83" ry=".83" transform="translate(47.9 -25.43) rotate(45)"/>
    <path class="st1" d="M76.9,62.94s-10.06,9.69-9.89,18.54h15.84s3.94-8.15-5.95-18.54ZM79.12,77.16h-6.82s1.29-5.06,4.02-6.82c0,0,3.19,3.08,2.94,6.38,0,0,.03.44-.14.44Z"/>
    <path class="st1" d="M32.37,62.94s10.06,9.69,9.89,18.54h-15.84s-3.94-8.15,5.95-18.54ZM30.15,77.16h6.82s-1.29-5.06-4.02-6.82c0,0-3.19,3.08-2.94,6.38,0,0-.03.44.14.44Z"/>
  </g>
</svg>