<?xml version="1.0" encoding="UTF-8"?>
<svg id="Layer_1" xmlns="http://www.w3.org/2000/svg" version="1.1" viewBox="0 0 90.9 84.28">
  <!-- Generator: Adobe Illustrator 29.8.3, SVG Export Plug-In . SVG Version: 2.1.1 Build 3)  -->
  <defs>
    <style>
      .st0 {
        fill: none;
      }

      .st1 {
        fill: #b20000;
      }
    </style>
  </defs>
  <path class="st0" d="M32.95,61.86c-.07,0-.16.02-.25.04.17.12.41.26.76.45.12.06-.14-.22-.24-.31-.13-.11-.19-.16-.26-.18Z"/>
  <path class="st0" d="M32.7,61.9s-.01,0-.02-.01c-.06.01-.13.03-.19.04.08-.01.14-.02.21-.03h0Z"/>
  <path class="st0" d="M12.72,61.21s.04.06.06.1c.16.11.12.09.22.11-.08-.08-.19-.14-.28-.21Z"/>
  <path class="st0" d="M31.48,61.49c-.07,0-.2.01-.26.03-.08.02-.16.06-.23.1.11-.02.27-.06.52-.12.03,0,.02-.01-.03-.01Z"/>
  <path class="st0" d="M30.86,61.63s-.06,0-.08,0c0,0,.02,0,.06,0,.01,0,.02,0,.03-.01,0,0,0,0-.01,0h0Z"/>
  <path class="st0" d="M27.67,61.65s0,.01,0,.02c.13,0,.27,0,.5-.01.17-.01-.33,0-.5,0Z"/>
  <path class="st0" d="M78.03,65.28s-.09.04-.13.06c.23.4.43.8.57,1.24.01.05,0,.07-.05.08-.03.39-.08.73-.14,1.01,0,0,0,0,0,.01.23-.01.46-.03.69-.06.02-.16.04-.32.06-.47-.02-.34-.05-.68-.08-1.02-.06.08-.12.15-.17.22,0,0,0,0,0,0-.25-.35-.5-.71-.75-1.06h0Z"/>
  <path class="st0" d="M78.28,67.67s-.04-.07-.14-.05c-.09.02-.18.05-.27.09.13,0,.27-.02.4-.02,0,0,0,0,0-.01h0Z"/>
  <path class="st0" d="M39.69,66.09c-.11.02-.21.05-.32.07,0,0,0,0,0,0,0,0,0,0,0,0,.07,0,.15-.01.22-.03.02,0,.04,0,.06-.02.01-.01.02-.02.04-.04h0Z"/>
  <path class="st0" d="M37.32,66.15c-.32.07-.64.14-.96.2.02.01.03.03.04.06.06,0,.12,0,.19,0,0,0,0,0,0,0,.06-.04.19-.03.19.03,0,.01,0,.03,0,.04.03,0,.04-.01.07-.02.26.09.81,0,.79.27-.01.13-.03.27-.06.4.26,0,.52.02.78.03-.27-.16-.51-.39-.87-.7-.05-.1-.11-.2-.17-.31h0Z"/>
  <path class="st0" d="M36.59,66.42s-.02.02-.02.03c-.01.04-.02.08-.04.12.02,0,.04-.01.07-.02,0-.04,0-.09,0-.13Z"/>
  <path class="st0" d="M36.6,66.54c.01.19.04.38.07.57.02,0,.05,0,.07,0,.01-.21.03-.42.04-.63-.07.02-.13.04-.18.06h0Z"/>
  <path class="st0" d="M33.56,66.36s-.09,0-.13,0c-1.03.02-2.04.21-3.07.23-.07,0-.13,0-.2,0,.47.1.94.2,1.42.28,1.06-.01,1.51,0,1.64.02.32-.04.86-.1,1.74-.18.21-.02.38-.03.52-.05.13-.06.27-.15.41-.22-.12.02-.25.03-.38.04-.65.05-1.3-.11-1.96-.12h0Z"/>
  <path class="st0" d="M55.02,66.53c-.15.02-.27.04-.38.06.11,0,.21-.02.32-.03.02-.01.03-.02.06-.03h0Z"/>
  <path class="st0" d="M54.76,66.64c-.1,0-.2.01-.31.02-.03,0-.11.03-.08.03.23-.03.32-.04.39-.05Z"/>
  <path class="st0" d="M14.1,66.9c-.1.03-.2.06-.31.09.16.46.32.76.59,1.33,0-.08-.02-.16-.02-.24-.01-.24-.02-.34-.01-.38,0-.05-.02-.12-.04-.24,0-.01,0-.03,0-.04,0-.12,0-.25,0-.37,0-.03-.02-.07-.02-.11-.07-.01-.13-.03-.19-.04h0Z"/>
  <path class="st0" d="M17.2,67.52c-.01.07-.02.15-.03.22,0,.11.02.23,0,.35-.02.16-.05.32-.08.48.11-.02.22-.03.3-.04.01-.33.02-.66.03-.98-.08,0-.15-.01-.23-.02h0Z"/>
  <path class="st0" d="M63.47,71.56c-.25.05-.51.11-.76.16,0,.03-.01.06-.02.09h.64s.09-.04.14-.06c0-.06,0-.13,0-.19h0Z"/>
  <path class="st0" d="M13.56,71.6c.02.07.04.14.06.21h.08c-.03-.05-.06-.1-.09-.15-.02-.02-.03-.04-.05-.06h0Z"/>
  <g id="g2890">
    <path id="path2896" class="st1" d="M54.59,21.7c0,5.53,0,11.07,0,16.6,0,2.14,0,4.29,0,6.43,0,.56,0,1.11.02,1.67,0,.09,0,.19.02.28,0,.03.03.04.05.06.02,0,.05,0,.06-.02.05-.06.08-.13.13-.2.25-.41.49-.82.72-1.25.93-1.72,1.64-3.56,2.19-5.44.55-1.89.93-3.83,1.18-5.78.06-.47.13-.94.16-1.42.06-.79.12-1.59.15-2.38.04-.91.05-1.81.07-2.72.02-1.07.02-2.13.02-3.2,0-.54,0-1.08-.01-1.62,0-.07,0-.15-.01-.22,0-.02-.01-.04-.03-.04-.05-.02-.1-.02-.15-.03-.41-.07-.83-.12-1.24-.19-.99-.15-1.97-.33-2.95-.54-.12-.03-.24-.05-.36-.08v.08h0ZM34.63,21.69c-.13.02-.25.04-.37.07-.39.08-.79.16-1.18.24-.72.13-1.44.25-2.16.35-.23.03-.46.07-.69.1-.02,0-.03.02-.04.04-.01.06,0,.12-.01.18,0,.49,0,.98,0,1.46,0,1.43.01,2.85.03,4.28,0,.48.01.97.03,1.45.03.84.07,1.67.14,2.51.06.68.14,1.35.23,2.02.32,2.34.82,4.65,1.58,6.89.49,1.42,1.08,2.8,1.8,4.11.23.42.48.84.72,1.26,0-5.98,0-11.97.01-17.95,0-2.24,0-4.47,0-6.71,0-.1,0-.19,0-.29-.02,0-.05,0-.07,0h0Z"/>
    <path id="path2892" d="M17.4,71.74c-.4-.1-.76-.38-.93-.74l-.09-.18v-1.23s-.02-1.23-.02-1.23h.54v1.2s.02,1.2.02,1.2l.08.17c.12.25.23.37.47.48.19.09.24.1.48.1.54,0,.85-.27.95-.79.02-.11.03-.63.03-1.28v-1.09h.25v1.17c0,1.24-.01,1.34-.16,1.62-.21.42-.65.65-1.23.64-.14,0-.33-.02-.42-.04h0ZM73.11,71.74c-.52-.13-.82-.44-.86-.89l-.02-.18h.27c.27,0,.27,0,.27.07,0,.19.1.42.25.56.17.17.32.22.63.22.46,0,.72-.26.65-.63-.04-.19-.17-.28-.91-.64-.6-.29-.72-.37-.85-.5-.17-.18-.23-.35-.21-.62.03-.39.23-.63.64-.75.29-.09.96-.07,1.22.03.35.14.58.43.59.76v.15s-.26,0-.26,0h-.27l-.02-.16c-.05-.38-.29-.59-.69-.6-.27,0-.42.05-.54.18-.18.21-.16.5.05.68.07.06.27.17.45.26.82.38.97.47,1.12.61.19.19.26.39.24.67-.03.39-.29.66-.72.75-.26.06-.81.06-1.04,0h0ZM19.99,70.05v-1.7h.14s.14.02.14.02l1.14,1.27,1.14,1.27v-1.28s.02-1.28.02-1.28h.25v3.4h-.12c-.12,0-.14-.03-1.26-1.28l-1.14-1.28-.02,1.27-.02,1.27h-.14s-.14.02-.14.02v-1.7h0ZM23.7,71.74s-.02-.78-.02-1.7v-1.68h.57v1.69s-.02,1.69-.02,1.69h-.26c-.14.01-.27,0-.28,0ZM25.97,70.18v-1.57h-.61s-.61-.02-.61-.02v-.12s-.02-.12-.02-.12h3.03v.12s-.02.12-.02.12h-.61s-.61.02-.61.02v3.15h-.54v-1.57ZM28.23,70.05v-1.7h2.45v.12s-.02.12-.02.12h-.93s-.93.02-.93.02v1.27h1.72v.25h-1.72v1.37h1.91v.25h-2.48v-1.7ZM31.34,70.06v-1.7h.72c.55,0,.77.01.91.05.61.16,1.06.59,1.24,1.19.07.22.07.72,0,.97-.14.52-.49.91-1.02,1.1-.17.06-.26.07-1.02.08h-.83s0-1.69,0-1.69h0ZM33.01,71.4c.43-.21.68-.69.68-1.31,0-.5-.11-.84-.38-1.12-.1-.1-.24-.21-.34-.26-.16-.08-.22-.09-.62-.1h-.44s0,1.44,0,1.44v1.45h.47c.41-.03.49-.04.63-.11h0ZM35.86,71.72s.33-.79.73-1.69l.73-1.65h.34l.77,1.65c.42.91.77,1.67.77,1.69,0,.03-.07.04-.29.04-.34,0-.29.05-.56-.56l-.19-.42h-.79s-.79.02-.79.02l-.21.48-.21.48h-.15c-.11.02-.15,0-.15-.02h0ZM38.02,70.47s-.61-1.37-.63-1.39c-.01-.01-.17.3-.34.69l-.32.72h.65c.36,0,.65,0,.65-.01h0ZM39.71,70.05v-1.7h.74c.78,0,.93.02,1.18.15.21.1.32.21.42.41.11.22.12.57.01.79-.09.19-.31.39-.52.47-.09.03-.16.08-.16.1s.21.34.46.71c.25.37.46.7.46.73.01.05-.01.06-.27.06h-.29l-.49-.73-.49-.73h-.53v1.46h-.54v-1.7h0ZM41.08,69.97c.42-.12.61-.58.41-.99-.13-.28-.36-.37-.9-.37h-.34s0,.7,0,.7v.7h.36c.2,0,.41-.01.47-.03h0ZM42.52,71.7s.35-.8.74-1.7l.72-1.65h.17s.17.02.17.02l.78,1.66c.43.92.78,1.68.78,1.69,0,.02-.13.03-.31.02h-.31s-.22-.49-.22-.49l-.22-.48h-.79s-.79-.02-.79-.02l-.21.48-.21.48h-.17c-.15.02-.16.01-.14-.04h0ZM44.62,70.32c-.41-.92-.57-1.26-.59-1.24-.02.02-.52,1.13-.62,1.37-.01.03.13.04.64.04h.65l-.07-.17ZM46.35,70.05v-1.71h.87s.87.02.87.02l.19.09c.37.17.51.38.51.76,0,.21-.01.26-.1.4-.05.09-.16.2-.25.26l-.15.1.14.06c.22.1.35.21.45.39.08.14.09.2.09.41,0,.41-.19.66-.61.83-.17.07-.23.07-1.1.08h-.91s0-1.69,0-1.69ZM48.04,71.4c.22-.1.34-.26.36-.49.03-.21-.03-.41-.17-.55-.17-.18-.32-.22-.86-.22h-.46v1.38h.47c.42-.03.49-.04.65-.11h0ZM47.94,69.75c.25-.14.36-.39.28-.69-.08-.33-.35-.46-.94-.46h-.36v1.25h.44c.4-.02.45-.03.58-.1ZM50.94,71.72s-.01-.78,0-1.69v-1.65s1.22,0,1.22,0h1.22s0,.12,0,.12v.13h-1.88v1.27h.87s.87.02.87.02v.22h-.87s-.87.02-.87.02v1.37h.96s.96.02.96.02v.22h-1.23c-.97.01-1.24,0-1.25-.02ZM54.06,71.72s-.01-.78,0-1.69v-1.65s.29,0,.29,0h.29s.6,1.29.6,1.29c.33.72.61,1.3.62,1.3,0,0,.28-.58.61-1.29l.59-1.3h.27s.27-.02.27-.02v3.41h-.28s-.28-.02-.28-.02l-.02-1.31-.02-1.31-.55,1.23c-.3.68-.57,1.24-.59,1.26-.06.04-.29.03-.33-.02-.02-.02-.29-.58-.6-1.23-.31-.66-.58-1.21-.59-1.22-.02-.02-.03.53-.03,1.3v1.33h-.13c-.07,0-.13-.02-.14-.04ZM58.47,70.05v-1.7h.54v3.4h-.54v-1.7ZM59.86,70.05v-1.7h.82c.93.02,1.04.05,1.33.3.23.2.29.34.29.66,0,.24,0,.29-.1.44-.11.19-.25.31-.51.42l-.17.07.49.73c.27.4.48.74.47.76,0,.01-.14.03-.29.03h-.28s-.48-.73-.48-.73l-.48-.73h-.54v1.46h-.54v-1.7h0ZM61.25,69.97c.48-.12.65-.79.3-1.14-.16-.16-.37-.22-.8-.22h-.34v1.4h.35c.19,0,.42-.02.5-.04h0ZM62.69,71.72s.33-.79.73-1.69l.73-1.65h.34l.77,1.65c.42.91.77,1.67.77,1.69,0,.03-.08.04-.3.04h-.3l-.22-.49-.22-.49h-.79s-.79.02-.79.02l-.22.48-.22.48h-.15c-.11.02-.15,0-.15-.02ZM64.86,70.47s-.61-1.37-.63-1.4c-.01-.01-.17.3-.34.69l-.32.72h.65c.36,0,.65,0,.65-.01ZM67.07,71.74s-.02-.72-.02-1.58v-1.55h-1.21v-.25h2.99v.25h-1.21v1.57s-.02,1.57-.02,1.57h-.26c-.14.01-.27,0-.28,0ZM69.34,70.05v-1.7h2.42v.25h-1.88v1.27h1.75v.25h-1.75v1.37h1.94v.25h-2.48v-1.7ZM12.91,65.97c-.13-.03-.31-.1-.4-.15-.65-.35-.96-1.23-.74-2.09.15-.58.6-1.01,1.18-1.13.24-.05.72-.04.94.01.52.14.89.49.96.93l.02.13h-.27c-.27,0-.27,0-.29-.09-.08-.36-.29-.63-.58-.72-.24-.08-.6-.06-.81.05-.4.2-.63.7-.64,1.37,0,1.02.54,1.6,1.38,1.49.23-.03.42-.11.56-.23l.1-.09v-.82h-.86v-.25h1.4v1.11l-.14.14c-.16.16-.42.29-.69.36-.29.07-.84.06-1.13-.02h0ZM16.66,65.98c-.59-.16-1.04-.62-1.2-1.21-.06-.24-.06-.71,0-.95.15-.59.62-1.06,1.22-1.22.1-.03.3-.05.45-.05.51,0,.88.15,1.23.49.35.34.5.72.5,1.24s-.15.9-.5,1.24c-.35.35-.7.49-1.23.49-.17,0-.38-.02-.47-.05h0ZM17.49,65.72c.33-.1.65-.52.76-.96.05-.23.05-.7,0-.92-.11-.44-.37-.78-.71-.94-.17-.08-.22-.09-.45-.07-.21.01-.29.03-.43.11-.43.23-.67.73-.67,1.37s.24,1.13.67,1.36c.26.14.51.16.84.06h0ZM49.06,65.98c-.54-.14-.97-.55-1.15-1.09-.11-.31-.11-.88,0-1.19.24-.71.86-1.13,1.64-1.14.84,0,1.51.53,1.68,1.35.2.93-.34,1.84-1.21,2.06-.24.06-.73.06-.96,0h0ZM50.01,65.68c.69-.35.91-1.62.41-2.37-.29-.43-.78-.6-1.26-.42-.83.31-1.05,1.79-.39,2.56.29.33.84.44,1.24.23h0ZM59.96,65.98c-.4-.11-.76-.42-.9-.77-.07-.18-.07-.21-.08-1.4v-1.22s.27,0,.27,0h.28s.02,1.23.02,1.23l.02,1.22.09.18c.1.21.22.32.46.43.52.24,1.12.04,1.34-.45.08-.17.08-.18.09-1.4v-1.23h.26v1.26s-.02,1.26-.02,1.26l-.1.21c-.13.26-.38.5-.64.6-.24.09-.82.12-1.09.04h0ZM62.76,66c-.27-.09-.53-.31-.63-.54-.06-.15-.04-.2.1-.2.1,0,.12.01.16.11.1.23.43.39.7.34.16-.03.23-.07.34-.18.19-.2.19-.26.21-1.66v-1.28s.27,0,.27,0h.26s0,1.14,0,1.14c0,.68,0,1.22-.02,1.35-.06.4-.26.7-.57.85-.11.06-.21.07-.45.08-.17,0-.34,0-.38-.02ZM20.47,65.93c-.12-.22-1.52-3.26-1.52-3.3,0-.03.08-.04.3-.04h.3l.6,1.35c.33.74.61,1.35.62,1.35,0,0,.29-.61.62-1.35l.6-1.35h.15c.14,0,.15,0,.14.07-.01.04-.34.8-.73,1.69l-.71,1.62h-.16c-.14.02-.16,0-.2-.05h0ZM22.73,64.3v-1.7h2.45v.25h-1.88v1.27h1.72v.14s-.02.14-.02.14h-.85s-.85.02-.85.02v1.33h1.91v.25h-2.48v-1.7ZM25.81,64.3v-1.7h.71c.78,0,.95.02,1.23.16.73.37.64,1.4-.14,1.67-.1.03-.14.06-.13.09.01.02.22.34.47.7s.45.69.46.72c.01.05-.01.06-.27.06h-.29l-.49-.73-.49-.73h-.53v1.46h-.54v-1.7ZM27.25,64.2c.54-.18.58-.99.07-1.25-.14-.07-.21-.08-.56-.09h-.41s0,.69,0,.69v.7h.38c.26,0,.42-.02.52-.05h0ZM28.96,64.3v-1.7h.12c.12,0,.13.01,1.26,1.27.63.7,1.15,1.27,1.16,1.27s.02-.57.02-1.27v-1.27h.25v3.4h-.13q-.13,0-1.26-1.27c-.63-.7-1.15-1.27-1.16-1.27-.01,0-.02.57-.02,1.27v1.27h-.25v-1.7ZM32.6,65.96s-.01-.78,0-1.69v-1.65h.58l.6,1.3c.33.71.61,1.3.62,1.3,0,0,.28-.58.61-1.3l.59-1.3h.27s.27-.02.27-.02v3.41h-.28s-.28-.02-.28-.02l-.02-1.31-.02-1.31-.56,1.24-.56,1.24h-.16c-.14.02-.17,0-.21-.05-.03-.04-.29-.6-.59-1.23s-.56-1.17-.58-1.19c-.01-.02-.03.57-.03,1.3v1.33h-.13c-.07,0-.13-.02-.14-.04h0ZM36.95,65.96s-.01-.78,0-1.69v-1.65s1.22,0,1.22,0h1.22s0,.12,0,.12v.13h-1.88v1.27h.87s.87.02.87.02v.09c.03.18.02.18-.89.18h-.84s0,.67,0,.67v.67h.96s.96.02.96.02v.22h-1.23c-.97.01-1.24,0-1.25-.02h0ZM40.02,64.3v-1.7h.14s.14,0,.14,0l1.14,1.28,1.14,1.28v-1.28s.02-1.28.02-1.28h.25v3.4h-.12c-.12,0-.14-.02-1.26-1.27l-1.14-1.27-.02,1.27-.02,1.27h-.14s-.14.02-.14.02v-1.7ZM44.54,64.43v-1.58h-1.21v-.25h2.99v.25h-1.21v1.57s-.02,1.57-.02,1.57h-.28s-.28.02-.28.02v-1.58ZM51.88,64.3v-1.7h2.45v.25h-1.88v1.27h.79s.79.02.79.02v.25h-.79s-.79.02-.79.02v.79s-.02.79-.02.79h-.28s-.28.02-.28.02v-1.7ZM56.08,64.3v-1.7h1.22s1.22.02,1.22.02v.22h-.95s-.95.02-.95.02v1.27h.8s.8.02.8.02v.09c.03.18.02.18-.83.18h-.78v1.59h-.54v-1.7ZM64.44,65.98s.33-.78.74-1.7l.74-1.68h.16s.16,0,.16,0l.77,1.66c.43.91.78,1.68.79,1.7.01.04-.04.04-.3.03h-.31s-.22-.49-.22-.49l-.22-.48h-1.56l-.22.49-.22.49h-.15c-.08,0-.15-.01-.15-.02h0ZM66.59,64.69s-.15-.37-.32-.74l-.3-.66-.05.09c-.09.18-.59,1.32-.59,1.35,0,.02.25.03.64.03h.64l-.02-.07ZM68.26,64.3v-1.7h.54v3.4h-.54v-1.7ZM69.61,65.96s-.01-.78,0-1.69v-1.65s.82,0,.82,0c.77,0,.82,0,.99.07.41.16.63.45.64.82.01.42-.18.72-.55.89-.11.05-.2.09-.21.1,0,0,.21.33.47.73.26.39.48.73.48.75,0,.02-.11.03-.29.03h-.29l-.48-.73-.48-.73h-.26s-.26,0-.26,0v1.46h-.27c-.19,0-.28-.01-.29-.04h0ZM71.09,64.19c.3-.13.39-.31.38-.67,0-.22-.02-.26-.11-.37-.05-.07-.17-.16-.25-.2-.13-.07-.21-.08-.55-.09h-.39s0,.69,0,.69v.7h.39c.32,0,.41-.01.53-.07h0ZM72.4,65.93s.34-.8.73-1.69l.71-1.62h.33l.77,1.65c.42.91.77,1.67.77,1.69,0,.03-.07.04-.3.04h-.3l-.22-.49-.22-.49h-.78s-.78,0-.78,0l-.22.49-.22.49h-.15c-.14,0-.15,0-.14-.07h0ZM74.55,64.73s-.6-1.38-.63-1.41c-.02-.02-.64,1.33-.64,1.4,0,.03.18.04.64.04.38,0,.64-.01.64-.03ZM76.19,65.96s-.01-.78,0-1.69v-1.65s.29,0,.29,0h.28s0,.76,0,.76v.76h1.91v-1.53h.54v3.4h-.54v-1.59h-1.91v1.59h-.27c-.19,0-.28-.01-.29-.04h0ZM43.84,60.1c-2.55-1.48-4.12-2.5-5.9-3.83-1.66-1.24-2.7-2.2-3.99-3.67-3.08-3.53-5.27-7.74-6.63-12.77-.8-2.95-1.36-6.51-1.54-9.68-.12-2.18-.17-4.95-.15-8.52.01-1.62.02-2.96.03-2.96,0,0,.65-.1,1.44-.2,1.73-.23,2.43-.34,3.45-.53,3.93-.72,7.43-1.86,10.54-3.43.99-.5,1.7-.9,2.76-1.56.51-.32.81-.48.84-.47.03.01.4.24.83.51s.93.57,1.12.68c3.24,1.86,7.17,3.27,11.49,4.12,1.43.28,2.14.4,4.27.69.78.11,1.42.2,1.43.21.04.04.06,4.42.04,6.46-.05,4.18-.15,6.01-.46,8.36-1.17,8.92-4.17,15.59-9.25,20.59-.33.32-.75.72-.93.88-1.46,1.26-3.38,2.61-5.71,4.05-.5.31-2.74,1.62-2.76,1.62,0,0-.41-.24-.91-.53ZM45.3,57.4c2.9-1.7,5.46-3.54,6.96-4.99,2.81-2.72,4.99-6.12,6.48-10.14,1.29-3.47,2.21-7.99,2.45-12.08.11-1.81.16-4.09.16-7v-2.32s-.53-.07-.53-.07c-6.03-.83-11.56-2.63-15.77-5.14l-.39-.23-.52.3c-3.84,2.24-8.08,3.76-13.08,4.69-.76.14-2.25.38-2.71.43l-.18.02-.02.21c-.01.12-.01,1.42,0,2.9.04,5.34.17,7.46.61,10.37,1.06,6.88,3.28,12.14,6.94,16.42,1.56,1.82,3.03,3.08,5.65,4.83,1.17.78,3.31,2.11,3.4,2.11.02,0,.27-.14.55-.3h0ZM44.68,56.62s-.33-.2-.7-.42c-2.24-1.31-4.31-2.73-5.74-3.94-1.22-1.03-2.56-2.52-3.62-4.04-2.79-3.98-4.42-8.73-5.12-14.93-.21-1.84-.3-4.86-.28-9.07,0-1.42.02-2.59.03-2.6,0,0,.49-.08,1.07-.16,1.27-.18,2.01-.3,2.88-.47.6-.12,2-.43,2.25-.5l.1-.03v14.04l.29.22c.16.12.29.23.29.25s-.03.07-.06.11l-.06.07-.2-.16c-.11-.09-.21-.16-.22-.16s-.02,2.92-.02,6.48v6.48l.37.49c.21.27.42.54.47.61l.1.12.33-.31c.44-.41.93-.81,1.52-1.27,1.13-.86,1.27-1.01,1.61-1.69.13-.27.26-.5.28-.51.04-.01.69.44.73.5,0,.01-.13.21-.3.44-.48.63-.61.92-.52,1.18.03.09.03.11-.07.25-.06.08-.19.22-.3.31-.23.2-.45.52-.96,1.38l-.39.66.04.26c.04.3.01.4-.12.43-.1.03-.12.01-.14-.14l-.02-.12-.07.14-.07.14.43.42c1.07,1.05,3.33,2.65,5.85,4.14l.44.26.68-.4c2.34-1.39,4.43-2.88,5.67-4.02l.22-.2-.12-.23-.12-.23-.04.14c-.03.13-.04.14-.11.11-.04-.01-.1-.06-.13-.1-.05-.07-.05-.1-.01-.33l.04-.25-.35-.6c-.52-.89-.72-1.18-1.01-1.47-.34-.33-.39-.41-.35-.58.06-.27-.06-.53-.52-1.15-.17-.22-.3-.41-.3-.43,0-.02.16-.15.36-.29l.36-.26.07.12c.04.06.15.27.24.47.3.62.45.77,1.6,1.66.74.57,1.2.96,1.66,1.4l.32.31.09-.11c.05-.06.24-.3.43-.53l.33-.42v-6.64c0-3.65,0-6.64-.02-6.64s-.12.08-.25.17l-.23.17-.07-.09s-.07-.09-.07-.1c0-.02.5-.39.58-.43.06-.03.06-.23.06-7.07,0-3.87,0-7.04.02-7.04s.21.05.45.11c1.5.38,3.05.66,5.08.94.52.07.96.13.96.14.03.03.04,4.33.01,5.93-.06,3.4-.14,4.75-.37,6.53-.74,5.71-2.36,10.33-4.92,14.01-.86,1.24-2.06,2.65-3.03,3.55-1.46,1.37-3.8,3.02-6.58,4.65-.33.2-.62.36-.64.36s-.04-.01-.06-.03h0ZM38.43,50.44s-.01-.09-.03-.12c-.04-.07-.08-.01-.11.15l-.02.14.08-.05s.08-.08.08-.12ZM50.95,50.42c-.02-.16-.02-.16-.08-.11-.07.06-.06.15.03.24.07.08.08.05.05-.14ZM54.86,46.45c1.61-2.63,2.69-5.45,3.46-8.97.53-2.42.8-4.7.91-7.68.02-.62.04-2.26.04-4.16v-3.15s-.3-.04-.3-.04c-1.22-.16-2.82-.44-3.82-.66-.27-.06-.5-.11-.5-.1-.02.02-.05,25.08-.02,25.08.02,0,.11-.14.22-.31h0ZM34.65,34.08v-12.36l-.56.12c-.89.19-2.05.39-2.99.53l-.86.12-.02.75c-.03.85,0,4.52.05,6.1.06,1.95.14,3.19.3,4.47.55,4.33,1.57,7.9,3.15,10.98.28.54.9,1.66.93,1.66,0,0,0-5.56,0-12.36h0ZM41.43,46.07c-.06-.03-.16-.12-.23-.2l-.13-.14.11-.14c.11-.13.78-.7.83-.7.03,0,.29.57.29.63,0,.09-.13.29-.26.4-.23.21-.43.26-.62.15ZM41.88,45.98c.17-.12.33-.37.33-.51,0-.31-.26-.43-.53-.24-.1.07-.14.14-.2.29-.09.26-.09.28.01.38.05.05.07.09.05.09-.07,0-.2-.14-.23-.25l-.03-.11v.11c0,.12.07.27.17.32.1.05.27.02.42-.08h0ZM47.38,46.05c-.19-.09-.31-.22-.39-.42l-.06-.13.14-.29c.08-.16.15-.3.16-.31.03-.03.77.59.85.71l.08.12-.13.15c-.12.14-.21.22-.27.22-.01,0,.01-.03.06-.07.1-.08.16-.27.12-.35-.02-.04-.03-.03-.03.05,0,.11-.12.26-.2.26-.03,0-.01-.03.05-.1.11-.11.11-.16-.03-.44-.1-.21-.25-.32-.42-.32-.13,0-.23.09-.27.24-.06.24.28.63.61.71l.1.02h-.1c-.05,0-.17-.03-.26-.08ZM40.87,45.59c-.12-.09-.12-.09-.04-.09.09,0,.21-.13.21-.23,0-.06,0-.06.1.03.05.05.1.1.1.12,0,.03-.19.28-.22.28-.01,0-.07-.04-.14-.1ZM48.18,45.64s-.06-.09-.1-.14l-.07-.1.12-.12c.06-.07.11-.1.1-.07-.03.1.06.25.17.28l.1.03-.12.09c-.14.1-.14.1-.19.04ZM42.4,45.42c-.05-.04-.31-.56-.31-.62,0-.02.05-.07.11-.11l.11-.08.16.32c.09.17.17.32.2.32.06,0,.05-.04-.12-.38l-.16-.31.23-.19c.13-.11.25-.19.26-.19.01,0,.07.08.12.17s.11.17.14.17c.05,0,.05-.07.01-.11-.01-.02-.06-.1-.11-.18l-.08-.15.22-.18c.17-.14.23-.17.25-.14.05.08.1.29.08.38-.02.1-.75,1.19-.85,1.28-.08.07-.18.07-.26.02h0ZM46.6,45.4s-.25-.32-.47-.64c-.42-.63-.44-.69-.34-.94l.05-.11.19.15c.28.22.27.2.14.43-.13.23-.13.22-.06.22.03,0,.09-.08.15-.18.05-.1.11-.17.13-.17.05.02.47.36.47.38,0,.01-.07.17-.16.34-.15.29-.16.35-.09.35.01,0,.09-.14.18-.3.08-.17.16-.3.18-.3.02,0,.07.04.12.08l.09.08-.13.28c-.07.15-.15.3-.18.33-.07.07-.17.07-.27,0ZM40.65,45.36c-.06-.08-.06-.15,0-.22.09-.12.29-.09.33.06.05.19-.21.32-.32.16ZM48.34,45.38c-.08-.08-.05-.24.06-.29.12-.06.24.02.24.15,0,.17-.19.26-.3.14h0ZM40.99,45.02l-.32-.34.38-.3c.21-.16.41-.31.45-.33.04-.02.4-.3.81-.62.59-.46.74-.6.76-.67.01-.07.08-.14.22-.24.11-.08.21-.17.22-.19.01-.02.1-.09.18-.15l.16-.12.37.3.37.3-.26.25c-.29.27-.81.7-.88.73-.07.02-1.65,1.31-1.75,1.42-.04.05-.14.14-.22.2l-.14.11-.32-.34ZM40.33,45.19c-.1-.07-.22-.19-.26-.25l-.07-.11.14-.1.14-.1.17.22c.12.16.16.23.14.26-.02.02-.04.07-.04.12v.08s-.2-.14-.2-.14ZM47.71,45.17c-.1-.09-.18-.16-.16-.16.03,0-1.66-1.37-1.75-1.42-.13-.07-.48-.35-.82-.68-.45-.42-3.82-3.14-3.88-3.13-.05,0-.33-.14-.33-.17,0-.03.49-.68.51-.68.03,0,4.41,3.3,4.56,3.45.07.06.17.15.23.19.06.04.12.11.14.18.03.09.15.2.76.68.4.31.76.59.8.61.04.02.24.17.45.33.43.34.43.26,0,.69-.14.14-.27.26-.29.26-.02,0-.12-.07-.22-.16ZM48.72,45.26s-.01-.1-.02-.13c-.02-.05.02-.12.14-.28l.16-.21.13.1c.07.05.13.11.13.11,0,.05-.16.22-.3.33-.22.16-.22.17-.22.09h0ZM40.46,44.83c-.12-.17-.15-.21-.12-.25.02-.03.05-.05.07-.05s.23-.15.47-.33.45-.33.46-.33.04.02.06.05c.03.05-.02.1-.4.4l-.44.35.17.17c.09.09.14.16.11.15s-.09,0-.14,0c-.08.03-.1.02-.24-.17h0ZM48.52,45l-.1-.03.13-.15c.07-.08.12-.16.12-.16-.08-.06-.81-.64-.84-.66-.03-.03.03-.12.08-.12.01,0,.22.15.46.33.24.18.46.33.48.33s.05.02.07.04c.02.03,0,.09-.11.23-.18.24-.17.23-.29.19h0ZM40.36,44.36s-.05-.11-.04-.15c.01-.04,0-.09-.03-.12-.07-.08-.02-.14.06-.08.06.04.08.04.14-.01.04-.03.08-.05.09-.05.01,0,.13-.07.27-.18.14-.1.26-.19.27-.19.02,0,.16.18.16.2,0,.02-.84.65-.87.65,0,0-.04-.04-.07-.08h0ZM48.44,44.17c-.19-.15-.38-.29-.42-.32l-.08-.06.09-.11.09-.11.25.19c.14.1.26.19.28.19.02,0,.07.03.11.06.07.05.08.05.13,0,.03-.03.06-.05.07-.05.04,0,.02.09-.03.13-.03.02-.04.06-.03.1.02.07-.04.25-.09.25-.02,0-.19-.12-.38-.27ZM47.67,43.91l-.07-.05.09-.11c.05-.06.1-.17.12-.25l.04-.14.11.08.11.08-.11.13c-.06.07-.13.17-.17.21-.06.08-.07.08-.13.03h0ZM41.35,43.73c-.15-.2-.15-.21-.09-.25.15-.12.16-.12.2.04.02.08.07.19.12.24.07.07.08.09.04.14-.07.08-.11.06-.27-.16ZM41.63,43.72c-.08-.1-.15-.33-.11-.37.02-.02.07-.01.14.01.09.03.12.03.21-.01.06-.03.12-.1.14-.15.03-.06.22-.24.56-.51.29-.23.53-.42.54-.43.01,0,.05.03.09.08l.07.09-.12.09c-.08.06-.13.12-.14.19-.02.08-.12.18-.65.6-.35.27-.64.5-.64.5,0,0-.04-.04-.08-.09h0ZM46.97,43.36c-.7-.55-.7-.55-.73-.66-.01-.05-.06-.12-.13-.16-.06-.04-.11-.09-.11-.1,0-.01.03-.06.06-.1l.06-.08.52.41c.28.23.55.46.59.53.04.07.12.14.17.17.08.04.1.04.18,0,.08-.04.1-.05.13-.01.05.06,0,.25-.09.36l-.08.1-.57-.45ZM43.22,42.26c-.07-.09-.08-.12-.05-.15.03-.03.06-.01.13.07.05.06.09.12.08.14-.02.07-.08.04-.16-.06h0ZM45.86,42.36s.02-.07.06-.14c.05-.06.09-.12.09-.12,0,0,.03,0,.06.01.05.02.04.04-.04.14-.08.12-.13.15-.18.1ZM43.38,42.14c-.05-.06-.08-.12-.08-.12s.06-.05.13-.1l.13-.09.11.09c.06.05.1.1.09.11-.01.01-.08.07-.16.12l-.13.1-.08-.11ZM43.55,40.56l-2.24-1.69.07-.09s.08-.09.09-.09.84.6,1.83,1.34c.99.74,2,1.49,2.24,1.66l.43.32-.09.12-.09.12-2.24-1.69ZM45.34,41.47l-.36-.27.09-.07c.2-.16,2.89-2.18,2.91-2.18.02,0,.54.67.53.68-.12.09-.28.18-.34.18-.05,0-.46.32-1.24.94-.64.52-1.18.95-1.2.97-.02.01-.18-.09-.39-.24h0ZM44.8,41.07c-.06-.04-.1-.08-.1-.09,0-.01,2.81-2.11,3.02-2.26.06-.04.07-.04.15.04.06.07.07.1.04.13-.07.07-2.93,2.22-2.97,2.23-.02,0-.08-.02-.13-.06ZM40.6,39.5s.03-.13.29-.47c.18-.23.33-.43.33-.43.01-.02.11.03.11.05,0,.03-.63.87-.66.89-.01,0-.04-.01-.06-.04ZM48.25,39.11c-.25-.33-.32-.45-.3-.48.02-.02.05-.04.06-.04s.17.19.35.43c.3.4.36.53.25.53-.02,0-.18-.2-.36-.44h0ZM38.91,37.98c-.9-.73-1.66-1.35-1.7-1.38-.06-.04-.05-.05.09-.25.08-.11.16-.21.17-.21s.78.57,1.7,1.26c.93.69,1.71,1.28,1.74,1.3.06.04.05.06-.14.31-.11.15-.21.27-.22.29-.01.01-.76-.58-1.66-1.31h0ZM48.5,39.05c-.1-.13-.19-.26-.2-.28,0-.03.62-.52,1.71-1.33.95-.71,1.73-1.29,1.75-1.3.01,0,.09.08.17.19.11.14.14.21.12.24-.04.06-3.32,2.72-3.35,2.72-.01,0-.11-.11-.21-.24h0ZM39.27,37.38l-1.75-1.31.08-.11c.07-.1.09-.1.13-.07.03.02.82.61,1.76,1.31l1.71,1.26-.08.11c-.05.06-.09.11-.09.11s-.8-.59-1.76-1.31h0ZM48.13,38.58c-.07-.11-.08-.11-.02-.16.03-.02.83-.61,1.76-1.3l1.7-1.26.07.1c.04.06.07.11.07.12,0,.02-3.45,2.59-3.49,2.6-.01,0-.06-.04-.1-.1h0ZM37.03,36.41c-.05-.05-.04-.07.09-.24.12-.16.15-.18.21-.15.03.02.06.04.06.05,0,.03-.27.39-.29.39-.01,0-.04-.02-.07-.06h0ZM52.01,36.28c-.1-.14-.13-.19-.1-.23.05-.08.09-.06.23.11.15.18.16.22.07.26-.05.03-.08,0-.2-.15ZM36.55,36.32s0-.09.02-.13c.03-.07.03-.09-.03-.13l-.07-.05.14-.18c.08-.1.2-.25.28-.33l.14-.16.2.15c.11.08.2.16.2.17s-.12.17-.27.36c-.2.25-.28.34-.31.32-.02-.02-.06-.02-.08,0-.07.05-.18.04-.2-.02h0ZM52.14,36.06c-.13-.17-.25-.33-.27-.36-.03-.04,0-.08.17-.21l.21-.16.07.09c.04.05.1.13.14.16.04.04.13.15.2.24.12.17.13.17.06.22-.06.05-.06.06-.03.13.02.04.03.1.02.13-.02.06-.15.07-.2.01-.03-.03-.05-.03-.08,0-.03.03-.09-.03-.28-.27h0ZM37.37,35.97c-.06-.04-.06-.05.01-.14.07-.09.07-.1.13-.05.06.05.06.06,0,.14-.04.05-.07.09-.07.09,0,0-.03-.02-.06-.05ZM51.75,35.94c-.07-.09-.07-.11,0-.16.04-.03.06-.03.12.04.07.08.07.09.02.14-.06.07-.08.07-.14-.02h0ZM36.31,35.89s-.07-.09-.07-.11c0-.05.21-.36.25-.36.03,0,.23.13.23.15,0,.03-.3.39-.32.39-.01,0-.05-.03-.09-.06ZM52.68,35.76l-.14-.19.09-.07c.05-.04.11-.07.13-.07.03,0,.23.25.26.33.02.04-.12.21-.17.21-.01,0-.09-.09-.17-.2ZM36.15,35.44c-.07-.06-.13-.12-.13-.15,0-.08.41-.61.5-.63.11-.03.25.08.26.21,0,.08-.01.12-.1.2-.06.06-.16.17-.23.26s-.13.17-.14.18c-.01.01-.08-.02-.15-.08h0ZM36.68,34.99c.06-.06.05-.17-.03-.23-.13-.12-.3.06-.2.2.05.07.17.09.23.03ZM36.65,35.42l-.12-.08.07-.09.07-.09.12.1c.12.09.12.1.07.17q-.06.09-.21,0h0ZM52.41,35.45c-.07-.08-.07-.11.06-.19l.11-.08.06.08.06.08-.11.09c-.13.1-.13.11-.2.03h0ZM52.84,35.37c-.06-.07-.16-.19-.22-.26-.14-.15-.17-.24-.13-.33.05-.09.2-.15.29-.1.07.03.48.56.48.61,0,.03-.24.22-.28.22-.02,0-.08-.06-.14-.14ZM52.79,34.98c.07-.07.06-.16-.03-.22-.15-.1-.31.08-.19.21.07.07.15.08.22.01h0ZM49.05,32.11l-.27-.21.13-.25c.08-.15.14-.24.17-.23.07.03.52.38.51.4-.08.19-.24.51-.25.51,0,0-.14-.1-.29-.21h0ZM37.59,32.28c-.21-.02-.92-.14-.96-.17-.02-.01.24-.1.6-.19,1.92-.5,3.21-1.08,3.45-1.54.08-.15.06-.36-.05-.6-.05-.11-.1-.25-.11-.3-.03-.13.07-.55.13-.55.02,0,.13.09.23.19.15.15.2.19.29.19.16,0,.31-.16.48-.52.14-.3.21-.39.35-.44.1-.04.13.02.14.34.05,1.42,1.02,2.31,2.68,2.46.94.09,3.13-.28,4.58-.76.58-.19.59-.17-.4-.49-1.11-.36-1.07-.34-1.1-.4-.05-.07.02-.28.15-.44.12-.16.37-.3.77-.44.2-.07.32-.14.4-.21.1-.1.11-.12.09-.24-.06-.38-.06-.48.01-.69.12-.36.43-.77.58-.77.11,0,.46.24.57.39.14.2.13.33-.09.76-.1.2-.19.37-.19.38-.02.05.28.13.42.11.18-.02.43-.14.51-.25.06-.08.06-.1.03-.25-.02-.09-.07-.35-.1-.58-.04-.23-.1-.53-.14-.67-.1-.36-.09-.5.04-.72.16-.25.17-.26.32-.14.11.09.22.3.29.51.04.12.03.15-.02.27-.06.14-.07.27-.05,1.12.02.62-.12.92-.49,1.11-.21.1-.33.11-1.16.08q-.33-.01-.58.11c-.21.1-.24.13-.21.17.06.08.73.39,1.05.49.29.09.92.24,1.9.46.48.11.49.11.47.19-.01.04-.06.13-.1.18-.14.18-.2.2-.86.2-.92,0-1.27.06-2.95.54-1.86.53-2.75.66-3.72.58-1.68-.15-2.59-.78-2.99-2.08l-.09-.28-.13.12c-.2.2-.49.56-.58.75-.05.09-.11.27-.15.4-.11.4-.25.56-.79.9-.58.36-1.11.58-1.6.68-.26.05-.7.08-.9.06h0ZM50.04,27.97c.11-.11.11-.2,0-.36-.05-.08-.13-.16-.16-.18-.09-.05-.25-.04-.28.02-.03.09.05.43.12.51.09.09.23.1.31.01h0ZM52.49,32.22s.02-.2.05-.41c.05-.32.06-.62.06-1.82,0-1.65-.07-2.66-.2-2.99-.06-.16-.07-.53-.01-.72.02-.08.09-.2.15-.27l.1-.12.05.11c.31.74.26,4.65-.08,5.91-.06.22-.12.37-.12.31h0ZM41.25,31.75c-.14-.11-.26-.21-.26-.23s.05-.14.12-.27l.13-.23.12.09c.06.05.18.14.26.19s.15.11.16.11.07-.11.14-.24c.09-.17.13-.23.16-.21.02.02.13.1.25.18.11.08.22.16.24.18.02.01-.02.14-.09.29l-.12.27-.27-.2c-.15-.11-.28-.2-.29-.2s-.06.1-.12.23-.11.23-.13.24c-.01,0-.14-.08-.28-.18h0ZM38.47,30.88c-.22-.12-.27-.21-.27-.46,0-.2,0-.22.21-.56.12-.19.21-.36.21-.38,0-.03-.46-.51-.64-.67-.07-.07-.13-.14-.14-.21-.02-.12.07-.46.13-.49.06-.02.34.08.48.18.07.05.14.13.15.18.05.21.19.39.3.39.04,0,.32-.25.77-.69.39-.38.74-.7.78-.72s.11-.02.15,0c.07.02.04.06-.39.53-.26.28-.58.63-.71.78s-.25.29-.25.32c0,.06.09.15.24.24.29.18.41.38.39.68-.02.4-.28.75-.65.89-.26.1-.59.09-.77-.02h0ZM39.41,30.36l.14-.06-.06-.1c-.1-.18-.36-.44-.47-.47-.13-.04-.25,0-.33.12-.16.24-.18.42-.05.54.08.08.09.08.35.06.16-.01.33-.05.41-.08ZM43.97,30.18c0-.11.02-.16.09-.24.08-.09,3.35-2.36,3.39-2.36.05,0,.02.28-.05.36-.16.2-3.27,2.37-3.4,2.37-.02,0-.04-.06-.04-.14h0ZM43.12,29.18c-.15-.04-.21-.18-.19-.42,0-.11.04-.25.08-.32.09-.17.28-.39.4-.45l.1-.05-.12.14c-.17.2-.26.39-.23.51.04.22.18.25.33.06l.1-.12v.16c0,.21-.09.41-.22.47-.11.06-.11.06-.25.01h0ZM41.32,28.08s.04-.2.13-.34c.11-.16.12-.2.05-.22-.14-.05-.25-.02-.4.13l-.15.15.02-.16c.01-.09.06-.25.12-.36.08-.17.13-.22.24-.28.17-.09.44-.1.76-.02.12.03.28.04.36.03l.15-.02-.02.11c-.06.26-.15.34-.65.59-.25.12-.42.23-.48.3-.05.06-.1.1-.11.09h0ZM44.02,27.64c-.4-.11-.63-.53-.53-.98.02-.1.12-.4.23-.67.14-.36.19-.53.2-.66v-.17s-.15-.09-.15-.09c-.24-.13-.28-.12-.61.13-.57.45-1.06.63-1.66.59-.6-.03-.99-.22-1.51-.73-.55-.54-.68-.58-.98-.24-.09.1-.26.35-.37.55-.26.46-.36.58-.51.64-.18.07-.3.04-.46-.12-.42-.42-.44-1.29-.04-1.93.1-.16.1-.16.11-.08,0,.05-.03.19-.07.33-.13.38-.12.68.05,1.01.11.22.38.31.51.17.04-.04.17-.25.29-.47s.28-.46.36-.55c.26-.29.6-.39.89-.25.07.03.28.2.46.37.37.35.54.48.83.61.3.13.5.17.83.15.66-.04,1.24-.42,1.86-1.23.33-.44.52-.52.82-.38.44.21.56,1.04.21,1.52-.11.16-.23.22-.39.22-.11,0-.14.02-.21.1-.19.25-.37.77-.37,1.09,0,.16.11.36.25.45.14.1.35.09.74,0,.64-.17,1.14-.44,1.59-.87l.29-.27h-.39c-.45,0-.56-.04-.65-.21-.16-.31.04-1.06.32-1.2.08-.04.11-.04.25,0,.24.08.49.26.64.48.07.11.17.2.21.21.11.04.42-.08.49-.18.05-.07.04-.09-.1-.38-.25-.52-.64-.97-1.2-1.42-.48-.38-.6-.61-.49-.98l.03-.11,1.73-.71c2.34-.96,2.76-1.12,3.01-1.17.39-.08.73-.04.87.1.24.26-.11.96-.76,1.52-.26.22-.48.38-.51.35,0,0,.15-.21.36-.44.72-.8.69-.76.58-.9-.1-.13-.21-.13-.62-.02-.58.15-1.64.59-3.17,1.32l-.72.34.26.28c.28.29.51.58,1.18,1.44.49.64.69.83.93.9.21.06.38.04.69-.08.12-.05.34-.13.49-.18s.26-.1.26-.11c0-.03-1.04-.44-1.1-.44-.03,0-.13.05-.23.11-.2.13-.37.14-.54.05-.21-.11-.21-.22,0-.46.19-.21.4-.31.7-.33.23-.01.25,0,.76.19.92.36,1.69.59,2.4.71.17.03.32.06.33.06.02.02-.12.3-.19.36-.13.13-.21.14-.95.14-.92,0-1.05.03-2.08.44-.54.21-.69.16-1.19-.41-.16-.18-.3-.33-.31-.33-.01,0-.02.1-.02.22,0,.4-.18.58-.62.65l-.23.04-.13.23c-.18.33-.4.58-.7.83-.79.63-1.69.97-2.21.82h0ZM46.57,25.27c-.2-.25-.34-.31-.54-.21-.08.04-.19.14-.16.15,0,0,.13.04.28.09.15.05.33.09.39.09h.12s-.1-.13-.1-.13h0ZM44.53,24.43c-.12-.15-.26-.24-.35-.24-.08,0-.3.13-.29.17.03.08.68.27.75.22,0,0-.04-.07-.11-.15h0ZM38.67,27.38c-.12-.1-.25-.19-.28-.22-.05-.04-.05-.06.07-.3l.13-.26.12.09c.06.05.18.14.26.19s.15.11.16.11.07-.11.14-.24c.09-.17.13-.23.16-.21.02.02.13.1.25.18.11.08.22.16.24.18.02.01-.02.14-.09.29l-.12.27-.26-.2c-.14-.11-.27-.2-.28-.2s-.07.11-.14.25l-.12.25-.22-.17ZM48.86,26.82c-.11-.09-.23-.18-.27-.21-.06-.04-.06-.05.06-.3.07-.14.13-.25.14-.25.03,0,.55.4.54.41-.15.34-.23.51-.24.51,0,0-.11-.07-.22-.16ZM42.48,24.11c-.13-.06-.17-.13-.17-.36,0-.3.23-.69.49-.83.09-.05.09-.04-.04.11-.21.25-.28.47-.18.61.07.1.17.09.29-.05l.11-.12v.19c-.03.23-.1.38-.23.44-.11.06-.15.06-.28,0h0ZM40.67,23.61s-.05-.13,0-.23c.04-.09.54-.45,2.39-1.74.65-.45,1.19-.81,1.2-.8.05.03.03.26-.04.35-.12.15-1.33,1.02-2.73,1.98-.4.27-.73.49-.75.49s-.05-.02-.07-.04h0ZM38.24,23.28l-.28-.21.13-.25c.07-.14.13-.25.15-.25s.12.08.25.17c.12.09.24.18.26.19.03.02.08-.05.15-.21.06-.13.12-.24.13-.24,0-.01.44.29.53.38.02.02-.16.46-.22.54,0,0-.13-.08-.29-.2l-.28-.21-.11.23c-.06.13-.11.24-.11.26,0,.05-.05.02-.32-.19h0ZM49.84,23.47s.19-.15.44-.3c.54-.33.83-.53,1.2-.85.37-.32.41-.38.38-.7-.03-.31.03-.46.25-.66.16-.15.27-.19.37-.14.14.07.14.26,0,.61-.05.12-.04.29,0,.43.03.09.03.11-.03.17-.06.06-.08.06-.15.03-.16-.07-.21-.05-.51.27-.5.54-1,.91-1.43,1.08-.2.07-.49.11-.54.06h0ZM52.35,21.29c.07-.06.08-.09.06-.16-.03-.11-.09-.11-.19.01-.16.19-.06.31.13.15h0ZM43.59,23.09s.16-.1.33-.21c.45-.28.78-.52.99-.73l.18-.19-.02-.19c-.03-.22.03-.36.2-.51.25-.22.4-.06.28.29-.03.08-.05.21-.04.33v.19s-.14,0-.14,0c-.14,0-.15,0-.27.14-.38.46-1.04.9-1.36.9-.09,0-.15,0-.14-.02h0ZM45.37,21.56c.06-.06.08-.15.03-.19-.04-.03-.16.1-.16.17s.05.08.13.01h0Z"/>
  </g>
</svg>