<?xml version="1.0" encoding="UTF-8"?>
<svg id="Layer_1" xmlns="http://www.w3.org/2000/svg" version="1.1" viewBox="0 0 107.01 95.37">
  <!-- Generator: Adobe Illustrator 29.8.3, SVG Export Plug-In . SVG Version: 2.1.1 Build 3)  -->
  <defs>
    <style>
      .st0 {
        fill: #4257a3;
      }

      .st1 {
        opacity: .3;
      }

      .st2 {
        font-size: 11.03px;
      }

      .st2, .st3, .st4 {
        fill: #522e2e;
      }

      .st2, .st4 {
        font-family: AdobeArabic-Regular, 'Adobe Arabic';
      }

      .st5 {
        fill: #89a73d;
      }

      .st6 {
        fill: #f37a20;
      }

      .st4 {
        font-size: 7.65px;
      }
    </style>
  </defs>
  <g>
    <text class="st4" transform="translate(7.69 78.64)"><tspan x="0" y="0">Fujairah Natural Resources Corporation</tspan></text>
    <text class="st2" transform="translate(7.92 70.95)"><tspan x="0" y="0">مؤسسة الفجيرة للموارد الطبيعية</tspan></text>
  </g>
  <g>
    <g>
      <polygon class="st3" points="48.77 43.4 62.23 13.47 74.25 43.15 61.54 23.9 48.77 43.4"/>
      <polygon class="st6" points="50.56 25.06 38.98 51.18 49.82 34.27 51.65 36.99 53.5 32.65 50.56 25.06"/>
      <polygon class="st6" points="54.59 35.16 52.57 38.13 61.09 50.87 54.59 35.16"/>
      <polygon class="st0" points="39.98 33.26 31.44 52.33 39.54 39.79 41.93 43.61 43.07 40.92 39.98 33.26"/>
      <polygon class="st0" points="44.22 43.59 43.08 45.39 47.71 52.25 44.22 43.59"/>
    </g>
    <g class="st1">
      <polygon class="st5" points="82.15 56.84 70.92 56.84 70.92 54.98 80.29 54.98 80.29 14.4 70.92 14.4 70.92 12.54 82.15 12.54 82.15 56.84"/>
    </g>
    <g class="st1">
      <polygon class="st5" points="36.09 56.84 24.86 56.84 24.86 12.54 36.09 12.54 36.09 14.4 26.72 14.4 26.72 54.98 36.09 54.98 36.09 56.84"/>
    </g>
  </g>
</svg>