<?xml version="1.0" encoding="UTF-8"?>
<svg id="Layer_1" xmlns="http://www.w3.org/2000/svg" version="1.1" xmlns:xlink="http://www.w3.org/1999/xlink" viewBox="0 0 105.38 101.06">
  <!-- Generator: Adobe Illustrator 29.8.3, SVG Export Plug-In . SVG Version: 2.1.1 Build 3)  -->
  <defs>
    <style>
      .st0 {
        fill: #bd9e66;
      }

      .st1 {
        fill: url(#linear-gradient2);
      }

      .st2 {
        fill: url(#linear-gradient10);
      }

      .st3 {
        fill: #fff;
      }

      .st4 {
        fill: url(#linear-gradient1);
      }

      .st5 {
        fill: url(#linear-gradient9);
      }

      .st6 {
        fill: url(#linear-gradient18);
      }

      .st7 {
        fill: url(#linear-gradient8);
      }

      .st8 {
        fill: url(#linear-gradient11);
      }

      .st9 {
        fill: url(#linear-gradient16);
      }

      .st10 {
        isolation: isolate;
      }

      .st11 {
        fill: url(#linear-gradient19);
      }

      .st12 {
        fill: url(#linear-gradient12);
      }

      .st13 {
        fill: url(#linear-gradient7);
      }

      .st14 {
        fill: url(#linear-gradient20);
      }

      .st15 {
        fill: url(#linear-gradient4);
      }

      .st16 {
        fill: url(#linear-gradient14);
      }

      .st17 {
        fill: url(#linear-gradient5);
      }

      .st18 {
        fill: url(#linear-gradient3);
      }

      .st19 {
        fill: url(#linear-gradient15);
      }

      .st20 {
        fill: url(#linear-gradient17);
      }

      .st21 {
        fill: url(#linear-gradient6);
      }

      .st22 {
        fill: #0e4b8e;
      }

      .st23 {
        fill: url(#linear-gradient13);
      }

      .st24 {
        fill: url(#linear-gradient);
      }

      .st25 {
        fill: #f37a20;
      }
    </style>
    <linearGradient id="linear-gradient" x1="58.51" y1="46.61" x2="63.14" y2="71.82" gradientTransform="translate(0 101.89) scale(1 -1)" gradientUnits="userSpaceOnUse">
      <stop offset="0" stop-color="#d9bc89"/>
      <stop offset="1" stop-color="#bb9b66"/>
    </linearGradient>
    <linearGradient id="linear-gradient1" x1="62.36" y1="45.91" x2="66.98" y2="71.12" gradientTransform="translate(0 101.89) scale(1 -1)" gradientUnits="userSpaceOnUse">
      <stop offset="0" stop-color="#d9bc89"/>
      <stop offset="1" stop-color="#bb9b66"/>
    </linearGradient>
    <linearGradient id="linear-gradient2" x1="65.62" y1="45.31" x2="70.24" y2="70.52" gradientTransform="translate(0 101.89) scale(1 -1)" gradientUnits="userSpaceOnUse">
      <stop offset="0" stop-color="#d9bc89"/>
      <stop offset="1" stop-color="#bb9b66"/>
    </linearGradient>
    <linearGradient id="linear-gradient3" x1="67.77" y1="44.91" x2="72.39" y2="70.13" gradientTransform="translate(0 101.89) scale(1 -1)" gradientUnits="userSpaceOnUse">
      <stop offset="0" stop-color="#d9bc89"/>
      <stop offset="1" stop-color="#bb9b66"/>
    </linearGradient>
    <linearGradient id="linear-gradient4" x1="69.44" y1="44.61" x2="74.06" y2="69.82" gradientTransform="translate(0 101.89) scale(1 -1)" gradientUnits="userSpaceOnUse">
      <stop offset="0" stop-color="#d9bc89"/>
      <stop offset="1" stop-color="#bb9b66"/>
    </linearGradient>
    <linearGradient id="linear-gradient5" x1="70.23" y1="44.46" x2="74.85" y2="69.67" gradientTransform="translate(0 101.89) scale(1 -1)" gradientUnits="userSpaceOnUse">
      <stop offset="0" stop-color="#d9bc89"/>
      <stop offset="1" stop-color="#bb9b66"/>
    </linearGradient>
    <linearGradient id="linear-gradient6" x1="70.4" y1="44.43" x2="75.03" y2="69.64" gradientTransform="translate(0 101.89) scale(1 -1)" gradientUnits="userSpaceOnUse">
      <stop offset="0" stop-color="#d9bc89"/>
      <stop offset="1" stop-color="#bb9b66"/>
    </linearGradient>
    <linearGradient id="linear-gradient7" x1="69.58" y1="44.58" x2="74.21" y2="69.79" gradientTransform="translate(0 101.89) scale(1 -1)" gradientUnits="userSpaceOnUse">
      <stop offset="0" stop-color="#d9bc89"/>
      <stop offset="1" stop-color="#bb9b66"/>
    </linearGradient>
    <linearGradient id="linear-gradient8" x1="68.73" y1="44.74" x2="73.35" y2="69.95" gradientTransform="translate(0 101.89) scale(1 -1)" gradientUnits="userSpaceOnUse">
      <stop offset="0" stop-color="#d9bc89"/>
      <stop offset="1" stop-color="#bb9b66"/>
    </linearGradient>
    <linearGradient id="linear-gradient9" x1="66.46" y1="45.15" x2="71.08" y2="70.37" gradientTransform="translate(0 101.89) scale(1 -1)" gradientUnits="userSpaceOnUse">
      <stop offset="0" stop-color="#d9bc89"/>
      <stop offset="1" stop-color="#bb9b66"/>
    </linearGradient>
    <linearGradient id="linear-gradient10" x1="-370.28" y1="46.37" x2="-365.65" y2="71.58" gradientTransform="translate(-323.71 101.89) rotate(-180)" gradientUnits="userSpaceOnUse">
      <stop offset="0" stop-color="#d9bc89"/>
      <stop offset="1" stop-color="#bb9b66"/>
    </linearGradient>
    <linearGradient id="linear-gradient11" x1="-366.43" y1="45.67" x2="-361.81" y2="70.88" gradientTransform="translate(-323.71 101.89) rotate(-180)" gradientUnits="userSpaceOnUse">
      <stop offset="0" stop-color="#d9bc89"/>
      <stop offset="1" stop-color="#bb9b66"/>
    </linearGradient>
    <linearGradient id="linear-gradient12" x1="-363.17" y1="45.07" x2="-358.55" y2="70.28" gradientTransform="translate(-323.71 101.89) rotate(-180)" gradientUnits="userSpaceOnUse">
      <stop offset="0" stop-color="#d9bc89"/>
      <stop offset="1" stop-color="#bb9b66"/>
    </linearGradient>
    <linearGradient id="linear-gradient13" x1="-361.02" y1="44.67" x2="-356.4" y2="69.89" gradientTransform="translate(-323.71 101.89) rotate(-180)" gradientUnits="userSpaceOnUse">
      <stop offset="0" stop-color="#d9bc89"/>
      <stop offset="1" stop-color="#bb9b66"/>
    </linearGradient>
    <linearGradient id="linear-gradient14" x1="-359.36" y1="44.37" x2="-354.74" y2="69.58" gradientTransform="translate(-323.71 101.89) rotate(-180)" gradientUnits="userSpaceOnUse">
      <stop offset="0" stop-color="#d9bc89"/>
      <stop offset="1" stop-color="#bb9b66"/>
    </linearGradient>
    <linearGradient id="linear-gradient15" x1="-358.56" y1="44.22" x2="-353.94" y2="69.43" gradientTransform="translate(-323.71 101.89) rotate(-180)" gradientUnits="userSpaceOnUse">
      <stop offset="0" stop-color="#d9bc89"/>
      <stop offset="1" stop-color="#bb9b66"/>
    </linearGradient>
    <linearGradient id="linear-gradient16" x1="-358.39" y1="44.19" x2="-353.76" y2="69.4" gradientTransform="translate(-323.71 101.89) rotate(-180)" gradientUnits="userSpaceOnUse">
      <stop offset="0" stop-color="#d9bc89"/>
      <stop offset="1" stop-color="#bb9b66"/>
    </linearGradient>
    <linearGradient id="linear-gradient17" x1="-359.2" y1="44.34" x2="-354.58" y2="69.55" gradientTransform="translate(-323.71 101.89) rotate(-180)" gradientUnits="userSpaceOnUse">
      <stop offset="0" stop-color="#d9bc89"/>
      <stop offset="1" stop-color="#bb9b66"/>
    </linearGradient>
    <linearGradient id="linear-gradient18" x1="-360.06" y1="44.5" x2="-355.44" y2="69.71" gradientTransform="translate(-323.71 101.89) rotate(-180)" gradientUnits="userSpaceOnUse">
      <stop offset="0" stop-color="#d9bc89"/>
      <stop offset="1" stop-color="#bb9b66"/>
    </linearGradient>
    <linearGradient id="linear-gradient19" x1="-362.33" y1="44.91" x2="-357.71" y2="70.13" gradientTransform="translate(-323.71 101.89) rotate(-180)" gradientUnits="userSpaceOnUse">
      <stop offset="0" stop-color="#d9bc89"/>
      <stop offset="1" stop-color="#bb9b66"/>
    </linearGradient>
    <linearGradient id="linear-gradient20" x1="50.19" y1="72.47" x2="64.88" y2="72.47" gradientTransform="translate(0 101.89) scale(1 -1)" gradientUnits="userSpaceOnUse">
      <stop offset="0" stop-color="#d9bc89"/>
      <stop offset="1" stop-color="#bb9b66"/>
    </linearGradient>
  </defs>
  <g class="st10">
    <g class="st10">
      <path class="st0" d="M21.9,75.8c-.08-.34-.13-.52-.26-.69-.15-.24-.34-.31-.98-.31h-.63c-.27,0-.29.02-.29.28v1.98h.87c.79,0,.84-.08.95-.63h.25v1.67h-.26c-.1-.59-.15-.68-.94-.68h-.87v1.47c0,.75.08.8.87.86v.24h-2.43v-.24c.69-.05.76-.11.76-.86v-3.3c0-.75-.08-.79-.74-.84v-.25h3.87c.01.31.05.85.09,1.27l-.26.04Z"/>
      <path class="st0" d="M28.82,74.75c-.48.02-.69.12-.73.51-.03.27-.05.65-.05,1.44v3.38h-.28l-3.8-4.41h-.01v2.06c0,.78.03,1.18.05,1.42.04.44.24.54.83.59v.24h-2.07v-.24c.5-.03.72-.14.76-.57.03-.27.07-.67.07-1.45v-1.82c0-.62-.03-.67-.19-.87-.18-.21-.36-.28-.77-.31v-.25h1.33l3.68,4.18h.02v-1.97c0-.79-.03-1.17-.06-1.41-.04-.4-.24-.51-.86-.54v-.25h2.06v.25Z"/>
      <path class="st0" d="M34.52,80.07c-.1,0-.2,0-.31-.02-.7-.03-1.06-.22-1.46-.77-.29-.41-.58-.93-.84-1.33-.16-.24-.31-.35-.75-.35h-.24v1.32c0,.71.08.77.77.83v.24h-2.34v-.24c.7-.06.78-.12.78-.83v-3.35c0-.72-.08-.77-.75-.82v-.25h2.21c.65,0,1.08.08,1.41.29.35.22.57.6.57,1.11,0,.73-.47,1.17-1.09,1.43.15.28.5.83.76,1.22.31.45.5.68.7.89.22.25.41.34.61.39l-.04.24ZM31.31,77.31c.43,0,.72-.07.94-.24.33-.25.46-.58.46-1.04,0-.91-.6-1.24-1.24-1.24-.26,0-.4.04-.46.08-.06.05-.09.14-.09.36v2.08h.39Z"/>
      <path class="st0" d="M40.17,78.54c-.12.4-.35,1.07-.5,1.34-.25.06-1.02.24-1.66.24-2.23,0-3.23-1.47-3.23-2.81,0-1.78,1.44-2.95,3.45-2.95.74,0,1.36.2,1.61.24.07.48.13.84.19,1.32l-.26.06c-.24-.94-.81-1.31-1.76-1.31-1.47,0-2.26,1.19-2.26,2.45,0,1.6.98,2.66,2.34,2.66.9,0,1.39-.48,1.84-1.35l.25.1Z"/>
      <path class="st0" d="M45.59,74.49c1.1,0,1.95.23,2.49.72.43.41.74,1.03.74,1.82,0,1-.41,1.76-1.09,2.25-.67.48-1.55.7-2.62.7h-2.15v-.24c.74-.05.82-.1.82-.83v-3.35c0-.73-.08-.76-.74-.82v-.26h2.56ZM44.58,78.84c0,.67.29.83.93.83,1.61,0,2.39-1.17,2.39-2.5,0-.87-.34-1.59-.98-1.99-.4-.27-.92-.39-1.54-.39-.39,0-.6.06-.69.12-.08.06-.11.16-.11.49v3.45Z"/>
      <path class="st0" d="M49.48,79.99v-.23c.54-.05.6-.1.6-.69v-1.7c0-.53-.03-.57-.54-.66v-.2c.46-.08.9-.17,1.28-.32v2.89c0,.58.06.63.61.69v.23h-1.95ZM49.93,75.03c0-.27.22-.47.47-.47s.45.2.45.47c0,.24-.2.46-.46.46-.24,0-.46-.21-.46-.46Z"/>
      <path class="st0" d="M55.67,76.37c-.06.13-.24.36-.39.43l-.49-.02c.14.18.24.44.24.74,0,.9-.78,1.35-1.54,1.35-.16,0-.31-.02-.45-.04-.11.08-.22.21-.22.32,0,.16.16.33.54.33.3,0,.6-.02.89-.02.52,0,1.25.16,1.25,1.01s-1.03,1.7-2.18,1.7c-.98,0-1.5-.56-1.51-1.04,0-.2.09-.37.23-.49.19-.18.49-.4.69-.56-.32-.09-.53-.28-.64-.46-.08-.12-.12-.28-.1-.38.35-.13.63-.35.76-.51-.4-.17-.76-.57-.76-1.13,0-.97.88-1.41,1.57-1.41h.01c.28,0,.56.08.83.21.44-.02.88-.08,1.2-.12l.04.07ZM53.65,80.12c-.39,0-.59.05-.74.17-.21.18-.36.4-.36.62,0,.44.47.82,1.14.82.77,0,1.2-.4,1.2-.92,0-.29-.15-.51-.4-.6-.23-.08-.47-.1-.82-.1h-.01ZM53.5,76.47c-.35,0-.68.33-.68,1s.31,1.12.77,1.12c.37,0,.69-.34.69-1s-.3-1.12-.78-1.12h0Z"/>
      <path class="st0" d="M55.98,79.99v-.23c.54-.05.6-.1.6-.69v-1.7c0-.53-.03-.57-.54-.66v-.2c.46-.08.9-.17,1.28-.32v2.89c0,.58.06.63.61.69v.23h-1.96ZM56.43,75.03c0-.27.22-.47.47-.47s.45.2.45.47c0,.24-.2.46-.46.46-.24,0-.46-.21-.46-.46Z"/>
      <path class="st0" d="M59.99,79.97c-.16.09-.29.12-.36.12-.57,0-.89-.32-.89-1.01v-2.43h-.58l-.04-.1.24-.25h.39v-.61l.63-.59.12.02v1.18h.96c.09.09.06.28-.06.35h-.9v2.13c0,.68.29.8.51.8.2,0,.39-.08.52-.14l.08.23-.6.3Z"/>
      <path class="st0" d="M63.72,80.09c-.16,0-.35-.08-.44-.17-.12-.11-.17-.23-.21-.36-.35.22-.75.53-1,.53-.64,0-1.06-.51-1.06-1.04,0-.42.23-.68.7-.83.55-.17,1.15-.39,1.33-.55v-.15c0-.61-.28-.93-.69-.93-.15,0-.28.06-.36.15-.11.11-.18.3-.26.57-.05.15-.14.21-.28.21-.17,0-.39-.17-.39-.38,0-.13.11-.23.28-.35.25-.18.83-.5,1.31-.6.27,0,.52.06.72.21.32.27.41.62.41,1.07v1.52c0,.38.15.5.31.5.1,0,.21-.04.31-.09l.09.23-.76.45ZM63.04,77.97c-.17.09-.52.25-.7.33-.33.14-.52.31-.52.62,0,.45.33.64.59.64.2,0,.48-.13.63-.28v-1.32Z"/>
      <path class="st0" d="M64.69,79.99v-.23c.54-.06.61-.11.61-.68v-3.97c0-.57-.06-.59-.59-.64v-.21c.46-.05,1.02-.2,1.33-.29v5.11c0,.57.08.62.64.68v.23h-1.99Z"/>
      <path class="st0" d="M75.57,74.75c-.72.06-.79.1-.79.82v3.37c0,.72.08.76.79.82v.24h-2.4v-.24c.75-.06.82-.1.82-.82v-1.65h-2.97v1.65c0,.71.07.76.79.82v.24h-2.35v-.24c.69-.06.76-.1.76-.82v-3.37c0-.72-.06-.76-.78-.82v-.25h2.33v.25c-.67.06-.74.1-.74.82v1.33h2.97v-1.33c0-.71-.07-.76-.76-.82v-.25h2.34v.25Z"/>
      <path class="st0" d="M82.21,74.75c-.5.03-.72.16-.76.5-.02.24-.05.58-.05,1.34v.67c0,1-.16,1.74-.67,2.25-.4.41-.99.6-1.59.6-.53,0-1.04-.12-1.42-.41-.53-.39-.79-1.04-.79-2.05v-2.02c0-.78-.08-.82-.76-.88v-.25h2.32v.25c-.68.04-.75.09-.75.88v1.84c0,1.39.58,2.16,1.64,2.16,1.23,0,1.65-.98,1.65-2.39v-.65c0-.76-.02-1.1-.07-1.37-.05-.32-.24-.44-.84-.48v-.25h2.09v.25Z"/>
      <path class="st0" d="M85.65,77.04c.88.12,1.56.49,1.56,1.34,0,.57-.31,1.01-.82,1.28-.45.24-1.04.33-1.72.33h-1.99v-.24c.74-.05.8-.11.8-.82v-3.36c0-.72-.04-.78-.72-.82v-.25h2.29c.66,0,1.04.1,1.32.29.3.2.49.57.49.97,0,.8-.7,1.13-1.2,1.25v.03ZM84.66,76.92c.94,0,1.33-.36,1.33-1.06,0-.61-.34-1.09-1.13-1.09-.21,0-.4.05-.48.1-.08.05-.1.15-.1.41v1.64h.38ZM84.28,78.9c0,.63.17.79.71.79.68-.01,1.29-.36,1.29-1.23s-.59-1.24-1.64-1.24h-.36v1.68Z"/>
    </g>
  </g>
  <g class="st10">
    <g class="st10">
      <path class="st0" d="M24.14,68.26v.69h-.31c.02.15.02.28.02.39,0,.18-.17.56-.24.67-.69.62-1.71,1-2.5,1-.69,0-1.16-.24-1.47-.58-.33-.37-.47-.89-.47-1.49,0-.54.2-1.26.5-1.77l.2.09c-.23.55-.33.99-.33,1.34,0,.46.15.88.43,1.17.33.34.79.5,1.3.5s1.06-.14,1.71-.46c.24-.13.44-.26.48-.37-.12-.26-.71-.49-1.56-.49l-.03-.08.37-.61h1.89ZM20.88,72.58c-.22-.21-.41-.38-.63-.56.14-.19.29-.37.42-.51.22.17.4.35.61.57-.15.21-.26.35-.41.49ZM21.91,72.51c-.22-.21-.41-.38-.63-.56.14-.19.29-.37.42-.51.22.17.4.35.61.57-.15.21-.26.35-.41.49Z"/>
      <path class="st0" d="M24.3,68.26c.56,0,.74-.28.91-.79.21-.67.63-1.02.99-1.02.26,0,.46.1.64.36.13.19.25.4.54,1.01.12.25.4.44.84.44h.09v.69h-.1c-.31,0-.6-.11-.82-.47h-.02c-.03.17-.09.31-.17.41-.11.12-.23.18-.35.18-.41,0-1.09-.29-1.52-.75h-.02c-.15.34-.49.63-1.07.63h-.08c-.29,0-.38-.21-.38-.36,0-.13.09-.33.38-.33h.16ZM26.1,68.17c.24.14.55.24.74.24.1,0,.2-.01.2-.13,0-.21-.13-.5-.27-.71-.21-.32-.46-.48-.69-.48-.29,0-.52.2-.62.48.05.2.4.48.63.61Z"/>
      <path class="st0" d="M30.44,68.26v.69h-2.14c-.29,0-.38-.21-.38-.36,0-.13.09-.33.38-.33h2.14Z"/>
      <path class="st0" d="M32.59,68.26v.69h-2.14c-.29,0-.38-.21-.38-.36,0-.13.09-.33.38-.33h2.14Z"/>
      <path class="st0" d="M33.04,68.26c.46,0,.86-.02,1.17-.11.34-.1.63-.3.63-.44,0-.04,0-.08-.01-.12-.19.02-.41.02-.61.02-.62,0-1.1-.17-1.29-.58-.05-.11-.08-.24-.08-.39,0-.4.15-.79.4-1.05.21-.22.45-.36.69-.36.43,0,.78.41,1.02,1.06.13.35.23.76.23,1.28,0,.34-.08.63-.26.85-.34.39-.96.53-1.91.53h-.43c-.29,0-.38-.21-.38-.36,0-.13.09-.33.38-.33h.45ZM33.22,64.74c-.22-.21-.41-.38-.63-.56.14-.19.29-.37.42-.51.22.17.4.35.61.57-.15.21-.26.35-.41.49ZM33.83,65.94c-.35,0-.64.27-.64.48,0,.43.71.57,1.55.56-.11-.51-.48-1.04-.91-1.04ZM34.25,64.67c-.22-.21-.41-.38-.63-.56.14-.19.29-.37.42-.51.22.17.4.35.61.57-.15.21-.26.35-.41.49Z"/>
      <path class="st0" d="M36.97,67.11c.31.73.58,1.16,1.21,1.16h.1v.69h-.11c-.24,0-.41-.05-.54-.17h-.02c0,.06.01.13.01.19,0,.25-.07.57-.21.83-.42.74-.88,1.07-1.28,1.07s-.89-.18-1.34-.42l.08-.18c.15.07.34.12.62.12.72,0,1.66-.81,1.78-1.61-.03-.06-.07-.15-.14-.24-.21-.29-.34-.54-.47-.8.11-.25.2-.44.29-.62h.04Z"/>
      <path class="st0" d="M40.42,68.26v.69h-2.14c-.29,0-.38-.21-.38-.36,0-.13.09-.33.38-.33h2.14Z"/>
      <path class="st0" d="M42.56,68.26v.69h-2.14c-.29,0-.38-.21-.38-.36,0-.13.09-.33.38-.33h2.14Z"/>
      <path class="st0" d="M42.68,68.26c.17,0,.37-.02.6-.14.19-.11.28-.3.28-.58-.01-.86-.07-1.79-.16-2.78-.02-.25-.05-.47-.05-.67,0-.12.05-.24.16-.36.08-.09.18-.19.29-.29l.04.03c-.01.35.16.77.43,1.23-.1.09-.21.18-.34.27.02.62.07,1.26.07,1.86s-.06,1.02-.21,1.34c-.11.27-.24.5-.49.62-.21.11-.46.16-.67.16h-.08c-.29,0-.38-.21-.38-.36,0-.13.09-.33.38-.33h.12Z"/>
      <path class="st0" d="M45.21,69.04c.05-.34.06-.72.06-1.07v-.52c0-.98-.11-2.41-.19-3.33.15-.19.36-.42.52-.57l.05.02c.11,1.17.14,2.52.14,3.77,0,.33-.01.65-.04.88-.02.29-.16.52-.47.86l-.07-.04Z"/>
      <path class="st0" d="M50.68,67.11c.31.73.58,1.16,1.21,1.16h.1v.69h-.11c-.24,0-.41-.05-.54-.17h-.02c0,.06.01.13.01.19,0,.25-.07.57-.21.83-.42.74-.88,1.07-1.28,1.07s-.89-.18-1.34-.42l.08-.18c.15.07.34.12.62.12.72,0,1.66-.81,1.78-1.61-.03-.06-.07-.15-.14-.24-.21-.29-.34-.54-.47-.8.11-.25.2-.44.29-.62h.04ZM50.22,65.24c.22.16.43.35.64.57-.12.19-.26.37-.44.52-.21-.2-.42-.37-.63-.55.15-.19.29-.38.43-.55Z"/>
      <path class="st0" d="M54.13,68.26v.69h-2.14c-.29,0-.38-.21-.38-.36,0-.13.09-.33.38-.33h2.14Z"/>
      <path class="st0" d="M56.28,68.26v.69h-2.14c-.29,0-.38-.21-.38-.36,0-.13.09-.33.38-.33h2.14Z"/>
      <path class="st0" d="M58.42,68.26v.69h-2.14c-.29,0-.38-.21-.38-.36,0-.13.09-.33.38-.33h2.14Z"/>
      <path class="st0" d="M60.57,68.26v.69h-2.14c-.29,0-.38-.21-.38-.36,0-.13.09-.33.38-.33h2.14Z"/>
      <path class="st0" d="M62.71,68.26v.69h-2.14c-.29,0-.38-.21-.38-.36,0-.13.09-.33.38-.33h2.14Z"/>
      <path class="st0" d="M64.85,68.26v.69h-2.14c-.29,0-.38-.21-.38-.36,0-.13.09-.33.38-.33h2.14Z"/>
      <path class="st0" d="M68.19,63.19c-.12.22-.26.44-.4.66-.27.07-.57.16-.86.26-.57.2-1.15.43-1.76.7v.02l.87.34-.13.27c.83.67,1.38,1.35,1.38,1.91,0,.5-.13.89-.34,1.11-.34.3-.87.5-1.87.5h-.21c-.29,0-.38-.21-.38-.36,0-.13.09-.33.38-.33h.34c.55,0,1.07-.05,1.43-.28.19-.12.29-.23.29-.29,0-.24-.17-.53-.37-.8-.24-.32-.73-.84-1.61-1.52-.16-.12-.19-.31-.19-.49,0-.11.05-.22.12-.34.06-.1.16-.2.4-.33.63-.32,1.65-.67,2.88-1.07l.04.04Z"/>
      <path class="st0" d="M69.22,67.11c.3.73.58,1.16,1.21,1.16h.1v.69h-.11c-.24,0-.41-.05-.54-.17h-.02c0,.06.01.13.01.19,0,.25-.07.57-.21.83-.42.74-.88,1.07-1.28,1.07s-.89-.18-1.34-.42l.08-.18c.15.07.34.12.62.12.72,0,1.66-.81,1.78-1.61-.03-.06-.08-.15-.14-.24-.21-.29-.34-.54-.47-.8.11-.25.2-.44.29-.62h.04Z"/>
      <path class="st0" d="M72.67,68.26v.69h-2.14c-.29,0-.38-.21-.38-.36,0-.13.09-.33.38-.33h2.14Z"/>
      <path class="st0" d="M74.81,68.26v.69h-2.14c-.29,0-.38-.21-.38-.36,0-.13.09-.33.38-.33h2.14Z"/>
      <path class="st0" d="M76.96,68.26v.69h-2.14c-.29,0-.38-.21-.38-.36,0-.13.09-.33.38-.33h2.14Z"/>
      <path class="st0" d="M77.11,68.26c.56,0,.75-.28.91-.79.21-.67.63-1.02.99-1.02.26,0,.46.1.64.36.13.19.25.4.54,1.01.12.25.4.44.84.44h.09v.69h-.1c-.31,0-.6-.11-.83-.47h-.02c-.03.17-.08.31-.17.41-.11.12-.23.18-.35.18-.41,0-1.09-.29-1.52-.75h-.02c-.15.34-.49.63-1.07.63h-.08c-.29,0-.38-.21-.38-.36,0-.13.09-.33.38-.33h.16ZM78.92,68.17c.24.14.55.24.74.24.1,0,.2-.01.2-.13,0-.21-.13-.5-.27-.71-.21-.32-.46-.48-.69-.48-.29,0-.52.2-.62.48.05.2.4.48.63.61Z"/>
      <path class="st0" d="M83.26,68.26v.69h-2.14c-.29,0-.38-.21-.38-.36,0-.13.09-.33.38-.33h2.14Z"/>
      <path class="st0" d="M83.38,68.26c.17,0,.37-.02.6-.14.19-.11.28-.3.28-.58-.01-.86-.07-1.79-.16-2.78-.02-.25-.05-.47-.05-.67,0-.12.05-.24.16-.36.08-.09.18-.19.29-.29l.04.03c-.01.35.16.77.43,1.23-.1.09-.21.18-.34.27.02.62.07,1.26.07,1.86s-.06,1.02-.21,1.34c-.11.27-.24.5-.49.62-.21.11-.46.16-.67.16h-.08c-.29,0-.38-.21-.38-.36,0-.13.09-.33.38-.33h.12Z"/>
      <path class="st0" d="M85.91,69.04c.05-.34.06-.72.06-1.07v-.52c0-.98-.11-2.41-.19-3.33.15-.19.36-.42.53-.57l.05.02c.11,1.17.14,2.52.14,3.77,0,.33-.01.65-.04.88-.02.29-.16.52-.47.86l-.07-.04Z"/>
    </g>
  </g>
  <path class="st22" d="M40.28,16.19s5.2,3.72,12.36-1.61c0,0,2.95,4,12.2,2.15l2.89,5.78s-4.13,4.38,0,12.72c4.13,8.34-6.11,13.07-6.11,13.07l-7.9,4.35s-1.12.61-3.01-.37-11.1-6.56-11.1-6.56c0,0-4.38-4.25-2.48-10.24s2.89-8.01.25-12.76l2.89-6.52h.01Z"/>
  <g>
    <path class="st24" d="M54.37,55.51s1.89-2.94,5.79-4.49c0,0-2.88,3.47-2.9,4.18s5.21.83,5.21.83c0,0-.89.94-4.05,1.05s-4.05-1.57-4.05-1.57Z"/>
    <path class="st4" d="M58.86,54.76s1.1-4.34,4.14-6.05c-1.6,3.58-1.67,4.18-1.47,4.87s4.91.36,4.91.36c0,0,.24.44-2.84,1.16s-4.74-.34-4.74-.34Z"/>
    <path class="st1" d="M62.81,53.39s.22-4.47,2.85-6.75c-.86,3.83-.81,4.43-.48,5.07s4.89-.62,4.89-.62c0,0,.32.39-2.55,1.7s-4.71.61-4.71.61h0Z"/>
    <path class="st18" d="M66.08,50.81s-.29-4.16,1.89-6.55c-.37,3.63-.26,4.19.12,4.74s4.45-1.11,4.45-1.11c0,0,.34.32-2.17,1.85s-4.29,1.08-4.29,1.08h0Z"/>
    <path class="st15" d="M68.87,48.05s-.87-4.08.95-6.75c.15,3.65.33,4.18.79,4.67s4.25-1.73,4.25-1.73c0,0,.38.27-1.89,2.14s-4.09,1.67-4.09,1.67h-.01Z"/>
    <path class="st17" d="M71.53,44.69s-1.8-3.76-.66-6.79c1,3.51,1.3,3.99,1.86,4.36s3.72-2.68,3.72-2.68c0,0,.44.17-1.34,2.52s-3.59,2.59-3.59,2.59h0Z"/>
    <path class="st21" d="M73.27,41.08s-2.35-3.45-1.67-6.61c1.51,3.32,1.89,3.75,2.49,4.03s3.28-3.21,3.28-3.21c0,0,.46.11-.94,2.69s-3.16,3.1-3.16,3.1Z"/>
    <path class="st13" d="M74.5,37.06s-3.05-2.84-3.09-6.08c2.21,2.91,2.67,3.23,3.32,3.38s2.49-3.85,2.49-3.85c0,0,.47,0-.32,2.84-.79,2.84-2.39,3.72-2.39,3.72h-.01Z"/>
    <path class="st7" d="M74.86,33.11s-3.3-2.59-3.65-5.89c2.47,2.74,2.96,3.03,3.62,3.11s2.11-4.19,2.11-4.19c0,0,.47-.05-.05,2.93-.52,2.98-2.03,4.05-2.03,4.05h0Z"/>
    <path class="st5" d="M70.08,18.65s5.36,3.17,4.79,10.69c0,0-.21,1.4-1.38-1.36s-3.92-9-3.41-9.33Z"/>
  </g>
  <g>
    <path class="st2" d="M50.71,55.75s-1.89-2.94-5.79-4.49c0,0,2.88,3.47,2.9,4.18s-5.21.83-5.21.83c0,0,.89.94,4.05,1.05s4.05-1.57,4.05-1.57Z"/>
    <path class="st8" d="M46.22,55s-1.1-4.34-4.14-6.05c1.6,3.58,1.67,4.18,1.47,4.87s-4.91.36-4.91.36c0,0-.24.44,2.84,1.16s4.74-.34,4.74-.34Z"/>
    <path class="st12" d="M42.27,53.63s-.22-4.47-2.85-6.75c.86,3.83.81,4.43.48,5.07s-4.89-.62-4.89-.62c0,0-.32.39,2.55,1.7s4.71.61,4.71.61h0Z"/>
    <path class="st23" d="M39,51.05s.29-4.16-1.89-6.55c.37,3.63.26,4.19-.12,4.74s-4.45-1.11-4.45-1.11c0,0-.34.32,2.17,1.85s4.29,1.08,4.29,1.08h0Z"/>
    <path class="st16" d="M36.22,48.29s.87-4.08-.95-6.75c-.15,3.65-.33,4.18-.79,4.67s-4.25-1.73-4.25-1.73c0,0-.38.27,1.89,2.14,2.27,1.87,4.09,1.67,4.09,1.67h.01Z"/>
    <path class="st19" d="M33.55,44.93s1.8-3.76.66-6.79c-1,3.51-1.3,3.99-1.86,4.36s-3.72-2.68-3.72-2.68c0,0-.44.17,1.34,2.52s3.59,2.59,3.59,2.59h0Z"/>
    <path class="st9" d="M31.81,41.32s2.35-3.45,1.67-6.61c-1.51,3.32-1.89,3.75-2.49,4.03s-3.28-3.21-3.28-3.21c0,0-.46.11.94,2.69s3.16,3.1,3.16,3.1Z"/>
    <path class="st20" d="M30.58,37.3s3.05-2.84,3.09-6.08c-2.21,2.91-2.67,3.23-3.32,3.38s-2.49-3.85-2.49-3.85c0,0-.47,0,.32,2.84.79,2.84,2.39,3.72,2.39,3.72h.01Z"/>
    <path class="st6" d="M30.22,33.35s3.3-2.59,3.65-5.89c-2.47,2.74-2.96,3.03-3.62,3.11s-2.11-4.19-2.11-4.19c0,0-.47-.05.05,2.93.52,2.98,2.03,4.05,2.03,4.05h0Z"/>
    <path class="st11" d="M35,18.89s-5.36,3.17-4.79,10.69c0,0,.21,1.4,1.38-1.36s3.92-9,3.41-9.33Z"/>
  </g>
  <circle class="st22" cx="52.54" cy="55.59" r="1.18"/>
  <polygon class="st14" points="50.19 38.05 57.95 20.79 64.88 37.9 57.55 26.8 50.19 38.05"/>
  <polygon class="st25" points="51.22 27.47 44.55 42.53 50.79 32.78 51.85 34.35 52.92 31.85 51.22 27.47"/>
  <polygon class="st25" points="53.54 33.3 52.38 35.01 57.29 42.36 53.54 33.3"/>
  <g>
    <polygon class="st3" points="45.12 32.2 40.2 43.2 44.87 35.96 46.25 38.17 46.91 36.62 45.12 32.2"/>
    <polygon class="st3" points="47.57 38.16 46.91 39.19 49.58 43.15 47.57 38.16"/>
  </g>
</svg>